<?xml version="1.0" encoding="UTF-8"?>
<svg id="Brown_Horizontal" xmlns="http://www.w3.org/2000/svg" version="1.1" viewBox="0 0 931 510.8">
  <!-- Generator: Adobe Illustrator 29.4.0, SVG Export Plug-In . SVG Version: 2.1.0 Build 152)  -->
  <defs>
    <style>
      .st0 {
        fill: #ed1c24;
      }

      .st1 {
        fill: #fff;
      }
    </style>
  </defs>
  <rect class="st1" width="931" height="510.8"/>
  <g>
    <g>
      <path d="M394.9,255.6v21.3c0,6.5,1.3,8.8,8.4,8.7,8.2,0,15.1-4.1,15.1-14.4s-7.8-15.5-17.9-15.5h-5.7ZM394.9,252.7h6.1c9.4,0,14-4.4,14-12.4s-2.4-12.4-14-12.4-4.6.3-5.4.6c-.6.2-.9.6-.9,2.5v21.6ZM404.4,225.1c7,0,11,1.2,14.2,3.4,3.3,2.3,5.1,5.8,5.1,10.7,0,8.6-8.1,12.8-12.8,13.9v.2c8.9,1.3,16.9,6.5,16.9,16.4s-3.4,11.8-9.1,15c-5,2.7-11.2,3.7-18.6,3.7h-22.4v-2.3c8.2-.6,9-1.3,9-11.9v-35.1c0-10.6-.7-11.3-8.4-11.9v-2.3h26.1Z"/>
      <path d="M461.8,257.8h5.7c4,0,7.1-.5,9.8-2.6,4.2-3.3,5.6-8.1,5.6-12.9,0-10.2-7.4-14.3-14.7-14.3s-4.7.2-5.5.5c-.6.2-.9.7-.9,2.6v26.7ZM461.8,274.4c0,10.6.8,11.3,8.8,11.9v2.3h-26v-2.3c8.2-.6,9-1.3,9-11.9v-35.1c0-10.6-.8-11.3-8.6-11.9v-2.3h24.8c6.2,0,11.8.9,15.4,3.3,3.9,2.4,6.4,6.8,6.4,12.5,0,8.1-5,13.9-12.9,17.1,1.8,2.9,5.8,9.7,8.7,14,3.5,5.2,5.6,7.8,8.2,10.7,2,2.4,3.8,4,7.3,4.9l-.2,1.9h-1.4c-11.2-.3-14.6-3.7-18.3-9.1-3-4.4-7.1-11.6-9.9-16.2-1.5-2.5-3.1-3.5-6.1-3.5h-5.3v13.7Z"/>
      <path d="M544.3,226.9c-11.5,0-21.3,9.5-21.3,27.8s9.8,32.1,24.1,32.1,21.3-9.1,21.3-27.2-10.2-32.7-24.1-32.7M577.8,256c0,20.3-14.1,34-32.8,34s-31.5-14.1-31.5-32.5,11.5-33.8,33.2-33.8,31,13.1,31,32.3"/>
      <path d="M611.2,227.4l-3,.4c-4.4.6-5,1.5-3.6,5.8l13.2,41.5h.2l15.6-48.9h2.4l17.6,48.9h.2c4-12.3,9.6-32.9,11.3-39.9,1.4-5.7.9-6.8-3.5-7.3l-2.8-.4v-2.3h20.7v2.3c-6.4.8-7.1,1.2-10.3,10-.9,2.4-8,24.9-16.2,51.7h-2.6l-17.5-47.7-.2.2-15.9,47.5h-2.7l-16.9-52.4c-2.6-8.1-4.1-8.8-9.7-9.4v-2.3h23.9v2.3Z"/>
      <path d="M750.3,289.2h-2.5l-42.3-51.4h-.2v24.9c0,10.2.4,15.5.8,18.5.5,3.4,3.1,4.8,9.6,5.1v2.3h-23.4v-2.3c5.4-.2,7.9-1.7,8.4-5.1.4-3,.8-8.3.8-18.5v-21.2c0-7,0-8.6-1.9-10.8-1.9-2.3-4.5-3-8.6-3.3v-2.3h14.2l41.1,49.2h.2v-23.3c0-10.2-.4-15.5-.8-18.5-.5-3.4-3.1-4.8-9.6-5.1v-2.3h23.4v2.3c-5.4.2-7.9,1.7-8.4,5.1-.4,3-.8,8.3-.8,18.5v38.2Z"/>
    </g>
    <g>
      <g>
        <g>
          <g>
            <path class="st1" d="M233.5,148.3c.3.5.7,1.2,1.3,2.2,1.5,2.5,3.9,12.2,7,15.3,1.6-1.1,4.5-2.5,6.1-3.1-.4-.6-2.1-3.6-4-6.1-3.7-4.9-6.4-7.5-6.7-8-1,0-2.7,0-3.8-.3Z"/>
            <path class="st1" d="M261.3,161.1c.7-5-.9-13.4-1.9-15.5-1.3-.3-2.5-.8-3.6-1.3-.1.6-1.1,4-1.4,9.1-.2,2.7,0,6.8.4,7.7,1.6-.2,4.3-.2,6.5,0Z"/>
            <path class="st1" d="M285.2,190.7c0-15.1-11.8-27-27-27s-27,12.1-27,27,.2,2.2.4,3.6c7.8-1.8,18-1.5,22.6,2.1,7.4-4.2,18.1-4.5,25.9,0,1.6-.8,3.2-1.3,4.8-1.8.2-1.5.3-3,.3-4ZM252.3,181.5c0,1.7-1.6,3.1-3.3,3-1.7,0-3.1-1.6-3-3.3v-.3c-.2-.4-1.6-.9-3.7.4-1.1.6-2.2.2-.4-1.4,1.9-1.7,3.8-2.7,5.4-2.9h0c2.7-.2,6.3.4,8,1,.7.3,0,3.7-.2,3.6-.6-.1-1.8-.6-2.8-.4v.2ZM261.3,190.9c-.6,1.6-6.2,2.1-7.3,0-.4-.8-1-3-.2-2.5,1.3.7,5.8.2,6.7,0,.8-.2.3-1.3.7-1.1.6.2.6,2.1,0,3.6ZM274.6,182.1c-1.4-1.2-3.3-1.7-4-1.2v.2c.2,1.7-1.1,3.2-2.8,3.4-1.7.2-3.3-1.1-3.4-2.9h0c-1.1-.5-2.9.1-3.2,0-.1,0-.9-3.3,0-3.7,2.7-1.1,11.4-1.6,14,3.3.3.6.1,1.4-.6.8Z"/>
            <path class="st1" d="M276.3,148c-3.2,2.7-8,9.2-8.6,14.4,1.5.6,5.4,2.5,6,2.9,3.9-3.8,3.1-8.1,4.6-11.4.7-1.4,1.3-2.5,1.7-3.2-1.3-.7-2.6-1.7-3.6-2.8Z"/>
            <path class="st1" d="M295.2,158.3c-.7.4-2.3,1.4-2.9,1.8-3.7,2.8-11.9,6.6-13.7,8.7,1.5,1.3,3.7,3.7,4.7,5.7.9,0,3.5-2.1,8.7-8.2,1.7-2,3.4-3,6.7-4.8-1.3-.9-2.5-2-3.4-3.2Z"/>
            <path class="st1" d="M229.8,180.9c-1.8-1.7-5.2-3.2-9.8-2.9-9.3.7-15.4.1-18.9-.4-6-.9-9.7,0-12.8,0-9.1,0,.3.8,1.3,1.2,4.3,1.7,13,3.8,19.8,3.3,3.3-.2,8.9,1.8,9.9,2.1,2.5.9,6.9,2.3,9.3,2.3.1-1.1.7-4.4,1.2-5.7Z"/>
            <path class="st1" d="M237.3,169.5c-4.7-3.8-9-4.6-15.8-7.8-1.6-.7-4.2-2.5-4.3-2.6-.2-.1-.5-.3-.9-.6-.4,1.3-1.2,3-2,4,1.1,1.4,8.7,10.1,18.5,12.8,1.1-1.9,2.8-4,4.5-5.9Z"/>
            <path class="st1" d="M335.5,176.3c-.5,0-2.2-.3-3.3-.3-1.5,0-11.2,0-13.8.5-5.4.8-15.9.4-21.6.2-4.3-.2-9.2,1.5-10.7,2.3,0,0,1.7,4.1,1.8,6.9,1.8.3,3.6-2,8.8-1.9,5.4,0,18.8-.6,25.6-3.3,5.1-2,9.3-2.9,12.7-3.6,1.1-.2,3-.5.7-.8Z"/>
          </g>
          <path class="st1" d="M214.4,149.2c.4-.4,1-.3,1.6-.1,4.6,1.5,11.2.5,14.2-4.4.4-.7,1.3-.9,2-.6,3.2,1.3,9.7,1.9,17.6-6.1.6-.6,1.6-.5,2.2,0,6.9,5.6,14.2,5.9,21.5,1,.5-.3,1-.7,1.5-.5.5.2.9.6,1,1.2,2.3,10.8,13.6,9.9,17.1,9.3.4,0,.9,0,1.2.3.4.3.6.7.7,1.1.4,2.5,3.2,7.4,8,10,4.2,2.1,8.7,2,13.5-.5.5-.2,1.1-.2,1.5,0,6.1,3.3,11.7,3.5,15.1.5,2.5-2.1,3.5-5.4,2.5-8.4-1.1-3.3-4.4-5.3-9-5.6-.8,0-1.4-.6-1.5-1.4-.4-2.6-1.9-4.8-4.2-6.2-3.6-2.2-8.9-2.5-14.2-.7-.5.2-1,0-1.4-.2s-.7-.7-.8-1.2c-.3-2-1.2-4.8-3.7-6.3-2.7-1.6-6.7-1.6-11.7.1-.8.3-1.6,0-2-.8-3.2-6.1-7.7-10.1-13-11.5-4.8-1.3-10-.3-14.5,2.5-.6.4-1.3.3-1.9,0-4.5-3.4-9.8-4.4-14.7-2.9-4.7,1.4-8.4,5.2-10.2,10.4-.1.4-.5.8-.9,1-.4.2-.9.2-1.3,0-7.3-2.9-13.2-2.8-17.2.2-3.4,2.6-4.5,6.8-4.3,8,.1.8-.4,1.6-1.2,1.8l-1.7.4c-4,.9-8.2,1.9-9.5,8.3-.1.7-.7,1.3-1.5,1.3-7,.7-11.6,3.3-12.5,7.1-.7,2.7.6,5.8,3,7.4,2.5,1.7,5.5,1.5,8.2-.5.5-.3,1-.4,1.6-.2,4.1,1.6,10.8,1.3,14.8-2,2.9-2.4,4.1-5.8,3.4-10.3,0-.6.1-1.1.6-1.5ZM325.4,149.7c4.2-1,9.1,2.1,7.7,7.7-.2,1-2.6,1-2.5,0,.4-4.7-2-5.1-5-5-1.2,0-1.1-2.5-.2-2.7ZM307.6,141.4c4-2.3,12.3-1.9,14.9,5.5.4,1.3-1.2,3.4-2.3,1.5-3.1-5.7-8.1-5.7-12.3-4.1-.9.4-1.8-2-.3-2.9ZM290.2,132.9c3.8-1.3,10.1-1.9,11.8,4.4.5,1.8-1.7,2.6-2.1,1.4-1.7-4.5-5-4.4-8.9-3.1-1.8.6-1.4-2.4-.8-2.6ZM259.6,125.8c2.7-4.4,16.8-8.5,24.1,3.9.8,1.4-.3,2.1-1.1,2.7-.6.4-.9-.5-1.3-1.1-6.2-9.7-17.3-7.2-20.3-2.7-.6.9-2.2-1.6-1.4-2.9ZM236.8,126.5c2.5-3.9,11-10,18.6-3.3.8.7-.2,3.5-1.1,2.8-6.9-4.7-12.3-.9-15.2,2.5-1.4,1.6-2.8-1.1-2.2-2ZM196,154.1c-2.9,0-5.2,0-7.2,2.3-2.2,2.4-1.6,3.6-2,4.1-.6.6-2.1-.4-2.1-1.6.1-5.5,6.8-7.7,10.8-7.3,1.5.2,1.9,2.5.6,2.5ZM207.8,144.8c-4.2.5-5.5,2.5-6.2,4.9-.3.9-2.7.3-2.3-1.5,1.1-5.2,6.8-6.5,8.8-6,.7.1.5,2.6-.3,2.6ZM211.4,139.1c.9-4.6,5.4-11.3,15.6-8.7,1.3.3.5,3.5-.8,3-7.5-2.9-11.3,2.7-12.5,7.2-.2.6-2.7.4-2.3-1.5Z"/>
          <g>
            <path class="st1" d="M190.6,195.6c-5-.1-9.1,1.3-10.6,3.8-2.7,4.7.5,8.7,2.4,9.9,4.3,2.6,8.4.9,8.7-.7-1.2-1.3-3.2-4.3-4.4-4.4-1.7,0-1.5-2.2-.3-2.6,2.9-1,5.7,4.5,9.8,7.5,3.7,2.6,8.9.7,8.9-.4-2.3-2-5-13-14.6-13.2Z"/>
            <path class="st1" d="M289.4,208.5c3.4,3.5,8.1,2,8.3.8-.4-.7-2.6-3.9-3.8-4.6-1-.6-1.7-1.5-1.2-2.3.9-1.3,2.8-.4,4,1.1,1.2,1.5,4.5,5.8,5.7,6.4,3,1.7,9.7,1.1,9.1-.9-1.8-2.9-3.1-8.8-8.6-11.4-5.7-2.7-13-2-19.7.4,1.2,2.4,4.4,8.6,6.1,10.4Z"/>
            <path class="st1" d="M249.5,197.5c-5.7-2.7-13.7-1.8-20.5.6,1.9,2.5,5,8.3,6.6,10.3,3.1,3.8,8.4,1.9,8.6.7-.4-.7-3.2-4.4-4.3-5-1-.6-1.6-1.5-1-2.3.9-1.3,3.2,0,4.4,1.4,1.2,1.5,4.6,5.7,5.7,6.4,3.3,2.3,9.7,1.1,9.1-.9-2.2-2.9-3.1-8.8-8.6-11.4Z"/>
          </g>
        </g>
        <g>
          <g>
            <path class="st1" d="M206.9,241.1c-4,.1-8,1.7-10.3,1.3v27.1s1.5,1.1,5.5,0c5.2-1.5,7.6.1,7.6.1v-27.3s-.6-1.2-2.8-1.2Z"/>
            <path class="st1" d="M221.4,354.2c4.1,1.2,5.5,0,5.5,0v-27.1c-2.3.4-6.3-1.2-10.3-1.3-2.2,0-2.8,1.2-2.8,1.2v27.3s2.3-1.6,7.6-.1Z"/>
            <path class="st1" d="M309.5,241.1c-2.2,0-2.8,1.2-2.8,1.2v27.3s2.3-1.6,7.6-.1c4.1,1.2,5.5,0,5.5,0v-27.1c-2.3.4-6.3-1.2-10.3-1.3Z"/>
            <path class="st1" d="M216.6,241.1c-2.2,0-2.8,1.2-2.8,1.2v27.3s2.3-1.6,7.6-.1c4.1,1.2,5.5,0,5.5,0v-27.1c-2.3.4-6.3-1.2-10.3-1.3Z"/>
            <path class="st1" d="M209.7,354.3v-27.3s-.6-1.2-2.8-1.2c-4,.1-8,1.7-10.3,1.3v27.1s1.5,1.1,5.5,0c5.2-1.5,7.6.1,7.6.1Z"/>
            <path class="st1" d="M307.2,327v27.3s2.3-1.6,7.6-.1c4.1,1.2,5.5,0,5.5,0v-27.1c-2.3.4-6.3-1.2-10.3-1.3-2.2,0-2.8,1.2-2.8,1.2Z"/>
            <path class="st1" d="M299.8,241.1c-4,.1-8,1.7-10.3,1.3v27.1s1.5,1.1,5.5,0c5.2-1.5,7.6.1,7.6.1v-27.3s-.6-1.2-2.8-1.2Z"/>
            <path class="st1" d="M290,327.2v27.1s1.5,1.1,5.5,0c5.2-1.5,7.6.1,7.6.1v-27.3s-.6-1.2-2.8-1.2c-4,.1-8,1.7-10.3,1.3Z"/>
          </g>
          <g>
            <path class="st1" d="M337.3,229h-64.9v58.8h64.9v-58.8ZM327.6,275.9h-18.6v2.3h-7.7v-2.3h-18.6v-31.4h4v-5.7c4,1,10.6-1.2,13.5-1.2,3.3,0,4.9,1.4,4.9,1.4,0,0,1.7-1.4,4.9-1.4s9.5,2.2,13.5,1.2v5.7h4v31.4Z"/>
            <path class="st1" d="M244.1,229h-64.9v58.8h64.9v-58.8ZM234.2,275.9h-18.6v2.3h-7.7v-2.3h-18.6v-31.4h4v-5.7c4,1,10.6-1.2,13.5-1.2,3.3,0,4.9,1.4,4.9,1.4,0,0,1.7-1.4,4.9-1.4s9.5,2.2,13.5,1.2v5.7h4v31.4Z"/>
            <path class="st1" d="M272.4,393.1c16.4-4.7,32.6-11.1,43.5-21.1,3.9-3.5,7.1-7.3,9.8-11.3h-16.7v2.3h-7.7v-2.3h-18.6v-31.4h4v-5.7c4,1,10.6-1.2,13.5-1.2,3.3,0,4.9,1.4,4.9,1.4,0,0,1.7-1.4,4.9-1.4s9.5,2.2,13.5,1.2v5.7h4v28.4c6-10.3,8.8-23,9.8-40.8v-2.7h-65v78.8Z"/>
            <path class="st1" d="M189.3,357.3v-28.1h4v-5.7c4,1,10.6-1.2,13.5-1.2,3.3,0,4.9,1.4,4.9,1.4,0,0,1.7-1.4,4.9-1.4s9.5,2.2,13.5,1.2v5.7h4v31.4h-18.6v2.3h-7.7v-2.3h-16.6c2.6,4,5.8,7.7,9.5,11.2,10.3,9.7,26.6,16.3,43.3,21.2v-78.8h-64.9v2.5c.8,16.3,3.8,29.5,10.2,40.6Z"/>
          </g>
        </g>
      </g>
      <g>
        <g>
          <path d="M344.5,174.6c-1-.7-11.3-2-12.9-2s-10.5,0-14,.6c-5.4.8-14.5.8-21.5,0-2.5-.3-5.3.3-7.6,1.1.4-.4.9-.8,1.5-1.4,2.1-2.1,4.3-6.1,8.4-8.1,1-.5,2-1,2.9-1.6,3.4,1.7,8.8,2.9,15.5-.3,10,5,16,1.6,18.1-.2,2.6-2.2,4-5.4,4-8.6s-.2-2.3-.5-3.3c-1.4-4.3-5.4-7.1-10.9-7.7-.3-1.2-.8-2.2-1.4-3.3.6-.8,1.2-1.6,1.6-2,.5-.6,2.1-3.3-2.3-1-.2.1-.6.3-1.2.7-.6-.6-1.3-1.2-2.1-1.6-4.1-2.5-9.6-2.8-15.4-1.3-.8-3-2.3-5.6-4.7-7.1-2.5-1.5-5.7-2-9.4-1.4.2-.5.4-1,.6-1.4,1.7-3.5.8-4.3-1-2.8-2,1.7-3.2,3-4.2,4-3.5-5.7-8.2-9.5-13.7-10.9-4.8-1.3-9.9-.6-14.6,1.7-.3-2.3-.6-4.3-.9-5.4-.9-2.8-1.9-.6-2.1.3-.2,1.2-.5,2.8-.8,4.7-4.6-2.5-9.8-3.2-14.6-1.7-5.3,1.6-9.3,5.6-11.7,11-1.9-.7-3.7-1.1-5.3-1.4-1-1.3-2.4-2.9-4.4-4.6-1.4-1.2-2.5-.6-1.7,1.8.3.9.6,1.7.8,2.5-3.8.2-6.5,1.4-8.4,2.9-3.7,2.8-5.2,6.9-5.5,9.5-.2,0-.5.1-.5.1-3.1.7-7.2,1.9-9.8,6-.5-.3-.8-.5-.9-.6-7.8-5.2-4.2,1.5-1.2,4.4-10.3,1.5-13.2,6.4-14,9.4-.2.7-.3,1.5-.3,2.3,0,3.3,1.7,6.7,4.7,8.7,3.4,2.3,7.6,2.2,11.4-.2,4.9,1.6,11.7,1.3,16.6-2.3,2.8,3.1,5.1,5.2,6.4,6.5,3.1,3.1,7.6,5.4,10,6.3-2.3-.9-6.1-1.8-9.9-1.3-8.2,1.1-13.7-.3-17.3-.7-5.8-.6-11.8.4-14.8.4s-7.6,1.5-9.8,1.8c-2.3.4-2.2,1.9,1.1,2.8,3.2.9,9.3,1.4,10.9,2.1,5.3,2.3,14.1,4.2,20.3,3.7,4.4-.3,8.8,1.8,10,2.1,2.2.7,7.6,2.1,9.8,2.1,0-.1,0,3.1.2,4.7-.8.3-1.7.6-2.4.9-2.5-1.5-13.3-5.9-26.5-.4-2.8-1-8.7-4.2-16.8-1.6-10,3.3-8.4,12.4-5.1,16.6,4.4,5.7,12.7,4.5,15.1,1.7,5.4,3.6,10.8,2.4,14.8-.1,2.6,1.5,15.4,4.1,25.2.1,1.3,1,6.7,3.8,13.6.3,4,2.4,10.5,2.5,13.9-.4,1.2,1,4.9,2.5,12.7,2.4,9.4-.1,11.5-1.5,12.9-2.7,2,.9,7.3,3.7,13.8.9,3.5,2.2,10.5,2.1,14.3-.4,6.9,3.1,19.5,1.7,22.7-.5,5.7-3.9,2.9-11.9-3.3-15.7-12.2-6.2-23.6-1.4-26.6.2-3.6-2.4-11.1-4-19-2.5.1-.9,0-2,0-3.2s0-.2,0-.4c1.6-.5,3.8-2.1,8.2-2.4,6.1-.4,20.5-.2,27.7-3.9,4.1-2.1,18.4-4.9,20.3-6,2-1.1,1.5-2,.4-2.7ZM292,166.3c-5.2,6.1-7.8,8.2-8.7,8.2-1-2-3.2-4.4-4.7-5.7,1.9-2.1,10-5.9,13.7-8.7.6-.4,2.2-1.4,2.9-1.8,1,1.2,2.1,2.3,3.4,3.2-3.2,1.8-5,2.8-6.7,4.8ZM217.1,153c4.4.7,9.5-.3,13.1-3.7,4.5,7.2,4.7,13.8,9,18.3-5.5-5.4-10.4-5.2-18.3-9.5-1.4-.7-3.4-2.1-4-2.4,0,0,0,0,0,0,0-.7.1-1.4.1-2.1s0-.5,0-.7ZM250.8,161.1v.2c.1,0-2.3-3.6-2.6-4.1-.8-1.3-1.9-2.5-3.1-4-1.9-2.3-3.5-4.1-4.8-5.5,3.2-.8,6.8-2.6,10.6-6.2.4.3.8.5,1.2.8-.2,1.2-.4,2.4-.6,3.2-.9,4.9-1,8.6-1,10.3,0,1.5,0,3.9.2,5.4ZM243.9,156.6c1.9,2.5,3.6,5.5,4,6.1-1.6.6-4.5,2-6.1,3.1-3.1-3.2-5.5-12.8-7-15.3-.6-1-1-1.7-1.3-2.2,1.1.4,2.8.3,3.8.3.3.4,3,3,6.7,8ZM258.2,163.8c15.1,0,27,11.9,27,27s0,2.5-.3,4c-1.6.5-3.2,1-4.8,1.8-7.8-4.5-18.5-4.3-25.9,0-4.6-3.6-14.9-3.9-22.6-2.1-.2-1.5-.4-2.9-.4-3.6,0-14.9,12.1-27,27-27ZM254.3,153.4c.3-5,1.3-8.4,1.4-9.1,1.1.5,2.4,1,3.6,1.3,1,2.1,2.7,10.4,1.9,15.5-2.3-.2-4.9-.2-6.5,0-.5-.9-.6-5-.4-7.7ZM278.2,154c-1.5,3.3-.7,7.5-4.6,11.4-.5-.4-4.5-2.3-6-2.9.6-5.2,5.5-11.7,8.6-14.4,1,1.1,2.4,2.1,3.6,2.8-.4.6-1,1.8-1.7,3.2ZM282.4,152.9c.1-.2.3-.5.4-.8,2.9,1,6.1,1.2,9.2.9.3,1,.8,2.1,1.4,3.2,0,0,0,0,0,0-1.5.7-6.2,3.9-13.1,7.8-1.8,1-2.9,1.9-3.5,2.6.8-1,1.7-2.4,2.3-3.8,1.2-3.1.9-5.6,3.3-9.8ZM265.8,156.9c-.7,1.9-1,2.9-1.3,3.9.6-4-.5-10-1.7-15.1,3.5,0,7.1-.9,10.6-2.9.3.8.6,1.5,1,2.2-2,1.8-6.8,7.1-8.6,11.8ZM210.4,161c-4,3.2-10.7,3.6-14.8,2-.5-.2-1.1-.1-1.6.2-2.7,2-5.7,2.2-8.2.5-2.5-1.7-3.7-4.7-3-7.4,1-3.8,5.5-6.4,12.5-7.1.7,0,1.3-.6,1.5-1.3,1.3-6.4,5.4-7.4,9.5-8.3l1.7-.4c.8-.2,1.3-1,1.2-1.8-.2-1.2.9-5.3,4.3-8,4-3.1,9.9-3.1,17.2-.2.4.2.9.2,1.3,0,.4-.2.7-.5.9-1,1.8-5.3,5.4-9,10.2-10.4,4.9-1.5,10.2-.4,14.7,2.9.6.4,1.3.4,1.9,0,4.5-2.9,9.7-3.8,14.5-2.5,5.3,1.4,9.8,5.4,13,11.5.4.7,1.2,1.1,2,.8,5-1.7,9-1.8,11.7-.1,2.5,1.6,3.4,4.3,3.7,6.3,0,.5.3.9.8,1.2s.9.3,1.4.2c5.3-1.8,10.6-1.5,14.2.7,2.4,1.4,3.8,3.6,4.2,6.2.1.8.8,1.3,1.5,1.4,4.6.3,7.9,2.3,9,5.6,1,3,0,6.3-2.5,8.4-3.5,2.9-9,2.7-15.1-.5-.5-.3-1.1-.3-1.5,0-4.8,2.5-9.3,2.6-13.5.5-4.9-2.5-7.7-7.4-8-10,0-.4-.3-.8-.7-1.1-.4-.3-.8-.4-1.2-.3-3.4.5-14.7,1.5-17.1-9.3-.1-.5-.5-1-1-1.2-.5-.2-1.1.2-1.5.5-7.3,4.9-14.6,4.5-21.5-1-.7-.5-1.6-.6-2.2,0-7.9,8-14.4,7.4-17.6,6.1-.7-.3-1.6,0-2,.6-3.1,4.8-9.6,5.9-14.2,4.4-.5-.2-1.1-.2-1.6.1-.4.4-.7.9-.6,1.5.7,4.5-.5,8-3.4,10.3ZM214.2,162.5c.7-1,1.6-2.7,2-4,.4.3.8.5.9.6.1,0,2.7,1.8,4.3,2.6,6.8,3.2,11.1,4,15.8,7.8-1.7,1.9-3.4,4-4.5,5.9-9.8-2.7-17.5-11.5-18.5-12.8ZM219.3,184.4c-1-.3-6.5-2.4-9.9-2.1-6.8.5-15.5-1.7-19.8-3.3-1.1-.4-10.5-1.2-1.3-1.2s6.7-.8,12.8,0c3.5.5,9.6,1.1,18.9.4,4.5-.4,8,1.1,9.8,2.9-.5,1.4-1,4.6-1.2,5.7-2.4,0-6.8-1.4-9.3-2.3ZM196.3,209.2c-4.1-3-7-8.4-9.8-7.5-1.2.4-1.3,2.5.3,2.6,1.1,0,3.2,3,4.4,4.4-.3,1.6-4.4,3.3-8.7.7-1.9-1.1-5-5.2-2.4-9.9,1.5-2.5,5.6-4,10.6-3.8,9.6.2,12.3,11.1,14.6,13.2,0,1.1-5.2,3-8.9.4ZM210.2,209c-3.6-1.6-6.5-10-7.6-11-.4-.4,6.4-2.9,13.4-2.3,11.8,1,11.9,8.4,14.8,12,1.1,1.3-9.6,4.4-20.6,1.3ZM249,209.8c-1.1-.7-4.5-5-5.7-6.4-1.2-1.4-3.4-2.8-4.4-1.4-.6.8,0,1.7,1,2.3,1.1.6,3.9,4.3,4.3,5-.2,1.1-5.5,3-8.6-.7-1.6-2-4.7-7.8-6.6-10.3,6.8-2.4,14.8-3.3,20.5-.6,5.5,2.6,6.4,8.5,8.6,11.4.5,1.9-5.8,3.1-9.1.9ZM263.9,209.6c-3.6-1.6-6.5-10-7.6-11-.4-.4,6.4-2.9,13.4-2.3,11.9,1,11.9,8.4,14.8,12,1.1,1.3-9.6,4.4-20.6,1.3ZM323.1,195.9c11.8,1,14.7,8.8,13.5,11.3-1,2.2-8.3,5.1-19.3,2-3.6-1.6-6.5-10-7.6-11-.4-.4,6.4-2.9,13.4-2.3ZM303,197.7c5.5,2.6,6.7,8.4,8.6,11.4.5,1.9-6.1,2.5-9.1.9-1.2-.7-4.5-5-5.7-6.4-1.2-1.4-3.1-2.4-4-1.1-.6.8.1,1.7,1.2,2.3,1.3.7,3.4,3.9,3.8,4.6-.2,1.1-4.9,2.6-8.3-.8-1.8-1.8-4.9-7.9-6.1-10.4,6.7-2.4,14-3.1,19.7-.4ZM334.8,177.1c-3.4.7-7.7,1.7-12.7,3.6-6.8,2.6-20.1,3.4-25.6,3.3-5.2,0-7,2.2-8.8,1.9-.1-2.8-1.8-6.9-1.8-6.9,1.5-.8,6.5-2.5,10.7-2.3,5.7.2,16.2.7,21.6-.2,2.6-.4,12.3-.5,13.8-.5,1.1,0,2.9.2,3.3.3,2.3.4.5.6-.7.8Z"/>
          <g>
            <path d="M196,154.1c-2.9,0-5.2,0-7.2,2.3-2.2,2.4-1.6,3.6-2,4.1-.6.6-2.1-.4-2.1-1.6.1-5.5,6.8-7.7,10.8-7.3,1.5.2,1.9,2.5.6,2.5"/>
            <path d="M207.8,144.8c-4.2.5-5.5,2.5-6.2,4.9-.3.9-2.7.3-2.3-1.5,1.1-5.2,6.8-6.5,8.8-6,.7.1.5,2.6-.3,2.6"/>
            <path d="M226.2,133.4c-7.5-2.9-11.3,2.7-12.5,7.2-.2.6-2.7.4-2.3-1.5.9-4.6,5.4-11.3,15.6-8.7,1.3.3.5,3.5-.8,3"/>
            <path d="M254.2,126.1c-6.9-4.7-12.3-.9-15.2,2.5-1.4,1.6-2.8-1.1-2.2-2,2.5-3.9,11-10,18.6-3.3.8.7-.2,3.5-1.1,2.8"/>
            <path d="M282.6,132.5c-.6.4-.9-.5-1.3-1.1-6.2-9.7-17.3-7.2-20.3-2.7-.6.9-2.2-1.6-1.4-2.9,2.7-4.4,16.8-8.5,24.1,3.9.8,1.4-.3,2.1-1.1,2.7"/>
            <path d="M299.9,138.6c-1.7-4.5-5-4.4-8.9-3.1-1.8.6-1.4-2.4-.8-2.6,3.8-1.3,10.1-1.9,11.8,4.4.5,1.8-1.7,2.6-2.1,1.4"/>
            <path d="M320.2,148.4c-3.1-5.7-8.1-5.7-12.3-4.1-.9.4-1.8-2-.3-2.9,4-2.3,12.3-1.9,14.9,5.5.4,1.3-1.2,3.4-2.3,1.5"/>
            <path d="M333.1,157.3c-.2,1-2.6,1-2.5,0,.4-4.7-2-5.1-5-5-1.2,0-1.1-2.5-.2-2.7,4.2-1,9.1,2.1,7.7,7.7"/>
          </g>
          <g>
            <path d="M252.3,181.5c0,1.7-1.6,3.1-3.3,3-1.7,0-3.1-1.6-3-3.3v-.3c-.2-.4-1.6-.9-3.7.4-1.1.6-2.2.2-.4-1.4,1.9-1.7,3.8-2.7,5.4-2.9h0c2.7-.2,6.3.4,8,1,.7.3,0,3.7-.2,3.6-.6-.1-1.8-.6-2.8-.4v.2"/>
            <path d="M261.3,190.9c-.6,1.6-6.2,2.1-7.3,0-.4-.8-1-3-.2-2.5,1.3.7,5.8.2,6.7,0,.8-.2.3-1.3.7-1.1.6.2.6,2.1,0,3.6"/>
            <path d="M274.6,182.1c-1.4-1.2-3.3-1.7-4-1.2v.2c.2,1.7-1.1,3.2-2.8,3.4-1.7.2-3.3-1.1-3.4-2.9h0c-1.1-.5-2.9.1-3.2,0-.1,0-.9-3.3,0-3.7,2.7-1.1,11.4-1.6,14,3.3.3.6.1,1.4-.6.8"/>
          </g>
        </g>
        <g>
          <path d="M272.4,229h64.9v58.8h-64.9v-58.8ZM179.1,229h64.9v58.8h-64.9v-58.8ZM244.1,393c-16.7-4.9-32.9-11.5-43.3-21.2-3.7-3.5-6.8-7.2-9.5-11.2h16.6v2.3h7.7v-2.3h18.6v-31.4h-4v-5.7c-4,1-10.6-1.2-13.5-1.2s-4.9,1.4-4.9,1.4c0,0-1.7-1.4-4.9-1.4-2.9,0-9.5,2.2-13.5,1.2v5.7h-4v28.1c-6.3-11.1-9.4-24.3-10-40.6v-2.5c-.1,0,64.8,0,64.8,0v78.8ZM196.6,354.2v-27.1c2.3.4,6.3-1.2,10.3-1.3,2.2,0,2.8,1.2,2.8,1.2v27.3s-2.3-1.6-7.6-.1c-4.1,1.2-5.5,0-5.5,0ZM213.8,354.3v-27.3s.6-1.2,2.8-1.2c4,.1,8,1.7,10.3,1.3v27.1s-1.5,1.1-5.5,0c-5.2-1.5-7.6.1-7.6.1ZM269,394.1l-10.8,2.7-10.8-2.8v-83.4h-68.3v-19.1h68.3v-62.4h21.5v62.4h68.3v19.1h-68.3v83.5ZM327.6,357.7v-28.4h-4v-5.7c-4,1-10.6-1.2-13.5-1.2s-4.9,1.4-4.9,1.4c0,0-1.7-1.4-4.9-1.4-2.9,0-9.5,2.2-13.5,1.2v5.7h-4v31.4h18.6v2.3h7.7v-2.3h16.7c-2.7,4-5.9,7.8-9.8,11.3-11,10-27.2,16.4-43.5,21.1v-78.8h64.9v2.7c-.9,17.8-3.7,30.4-9.7,40.8ZM320.3,327.2v27.1s-1.5,1.1-5.5,0c-5.2-1.5-7.6.1-7.6.1v-27.3s.6-1.2,2.8-1.2c4,.1,8,1.7,10.3,1.3ZM303.1,327v27.3s-2.3-1.6-7.6-.1c-4.1,1.2-5.5,0-5.5,0v-27.1c2.3.4,6.3-1.2,10.3-1.3,2.2,0,2.8,1.2,2.8,1.2ZM175.2,225.1v87.1c0,28.8,7.2,48.7,22.6,62.7,15.3,13.9,38.1,21,60.5,26.2,23-5.4,45.1-12.2,60.5-26.2,15.4-14,22.5-33.9,22.5-62.7v-87.1h-166.1Z"/>
          <path d="M230.2,244.5v-5.7c-4,1-10.6-1.2-13.5-1.2s-4.9,1.4-4.9,1.4c0,0-1.7-1.4-4.9-1.4-2.9,0-9.5,2.2-13.5,1.2v5.7h-4v31.4h18.6v2.3h7.7v-2.3h18.6v-31.4h-4ZM209.7,269.5s-2.3-1.6-7.6-.1c-4.1,1.2-5.5,0-5.5,0v-27.1c2.3.4,6.3-1.2,10.3-1.3,2.2,0,2.8,1.2,2.8,1.2v27.3ZM226.9,269.4s-1.5,1.1-5.5,0c-5.2-1.5-7.6.1-7.6.1v-27.3s.6-1.2,2.8-1.2c4,.1,8,1.7,10.3,1.3v27.1Z"/>
          <path d="M323.6,244.5v-5.7c-4,1-10.6-1.2-13.5-1.2s-4.9,1.4-4.9,1.4c0,0-1.7-1.4-4.9-1.4-2.9,0-9.5,2.2-13.5,1.2v5.7h-4v31.4h18.6v2.3h7.7v-2.3h18.6v-31.4h-4ZM302.6,269.5s-2.3-1.6-7.6-.1c-4.1,1.2-5.5,0-5.5,0v-27.1c2.3.4,6.3-1.2,10.3-1.3,2.2,0,2.8,1.2,2.8,1.2v27.3ZM319.8,269.4s-1.5,1.1-5.5,0c-5.3-1.5-7.6.1-7.6.1v-27.3s.6-1.2,2.8-1.2c4,.1,8,1.7,10.3,1.3v27.1Z"/>
        </g>
      </g>
      <g>
        <polygon class="st0" points="247.5 394.1 258.2 396.8 269 394.1 269 310.6 337.3 310.6 337.3 291.5 269 291.5 269 229 247.5 229 247.5 291.5 179.1 291.5 179.1 310.6 247.5 310.6 247.5 394.1"/>
        <g>
          <path class="st0" d="M216,195.7c-7-.6-13.8,1.9-13.4,2.3,1.1,1.1,3.9,9.4,7.6,11,11,3.1,21.7,0,20.6-1.3-2.9-3.7-3-11-14.8-12Z"/>
          <path class="st0" d="M269.7,196.3c-7-.6-13.8,1.9-13.4,2.3,1.1,1.1,4,9.4,7.6,11,11,3.1,21.7,0,20.6-1.3-2.9-3.7-2.9-11-14.8-12Z"/>
          <path class="st0" d="M317.3,209.2c11,3.1,18.3.2,19.3-2,1.2-2.5-1.6-10.3-13.5-11.3-7-.6-13.8,1.9-13.4,2.3,1.1,1.1,3.9,9.4,7.6,11Z"/>
        </g>
      </g>
    </g>
  </g>
</svg>