<?xml version="1.0" encoding="utf-8"?>
<!-- Generator: Adobe Illustrator 28.2.0, SVG Export Plug-In . SVG Version: 6.00 Build 0)  -->
<svg version="1.1" id="Layer_1" xmlns="http://www.w3.org/2000/svg" xmlns:xlink="http://www.w3.org/1999/xlink" x="0px" y="0px"
	 viewBox="0 0 512 512" style="enable-background:new 0 0 512 512;" xml:space="preserve">
<style type="text/css">
	.st0{fill:#FFFFFF;}
	.st1{fill:#ED1C24;}
</style>
<g id="Brown_Stacked">
	<g>
		<path d="M63.7,472.5v24.6c0,7.6,1.4,10.2,9.6,10.1c9.3,0,17.2-4.7,17.2-16.7c0-12.3-8.9-17.9-20.3-17.9L63.7,472.5L63.7,472.5z
			 M63.7,469.2h7c10.7,0,16-5.1,16-14.3c0-6.8-2.8-14.3-15.9-14.3c-3.7,0-5.2,0.3-6.1,0.7c-0.7,0.2-1,0.7-1,2.9
			C63.7,444.1,63.7,469.2,63.7,469.2z M74.6,437.3c8,0,12.6,1.4,16.2,4c3.8,2.7,5.8,6.8,5.8,12.4c0,9.9-9.2,14.8-14.5,16.1v0.2
			c10.1,1.5,19.2,7.6,19.2,19c0,8-3.9,13.7-10.3,17.4c-5.7,3.2-12.8,4.3-21.2,4.3H44.2V508c9.3-0.7,10.2-1.5,10.2-13.8v-40.6
			c-0.1-12.3-0.8-13.1-9.6-13.8v-2.6L74.6,437.3L74.6,437.3z"/>
		<path d="M140,475.1h6.5c4.6,0,8.1-0.6,11.1-3.1c4.8-3.8,6.4-9.4,6.4-14.9c0-11.8-8.5-16.6-16.8-16.6c-3.8,0-5.3,0.2-6.2,0.6
			c-0.7,0.2-1,0.8-1,3.1L140,475.1L140,475.1z M140,494.3c0,12.3,0.9,13.1,10,13.8v2.6h-29.6V508c9.3-0.7,10.2-1.5,10.2-13.8v-40.6
			c0-12.3-0.9-13.1-9.8-13.8v-2.6h28.2c7.1,0,13.4,1,17.5,3.9c4.4,2.8,7.3,7.9,7.3,14.4c0,9.4-5.7,16-14.7,19.8
			c2,3.4,6.6,11.2,9.9,16.2c4,6,6.3,9,9.3,12.4c2.3,2.8,4.3,4.6,8.3,5.6l-0.2,2.2h-1.6c-12.8-0.4-16.7-4.3-20.9-10.5
			c-3.4-5.1-8.1-13.4-11.2-18.8c-1.8-2.9-3.5-4.1-7-4.1h-6L140,494.3L140,494.3z"/>
		<path d="M234,439.3c-13.1,0-24.2,10.9-24.2,32.2c0,21.8,11.2,37.1,27.5,37.1c13.3,0,24.2-10.5,24.2-31.5
			C261.5,452.7,249.9,439.3,234,439.3 M272.2,472.9c0,23.5-16.1,39.4-37.3,39.4c-21,0-35.9-16.3-35.9-37.6c0-19,13.1-39.2,37.9-39.2
			C256.1,435.6,272.2,450.7,272.2,472.9"/>
		<path d="M308.6,439.9l-3.4,0.5c-5,0.7-5.7,1.7-4.1,6.7l15,48.1h0.2l17.8-56.7h2.7l20.1,56.6h0.2c4.5-14.2,11-38,12.9-46.2
			c1.5-6.6,1-7.9-4-8.5l-3.2-0.5v-2.6h23.5v2.6c-7.3,0.9-8.1,1.4-11.8,11.6c-1,2.8-9.1,28.8-18.4,59.8h-3l-20-55.2l-0.2,0.2
			l-18.1,55h-3.1l-19.2-60.6c-3-9.4-4.7-10.2-11-10.8v-2.6h27.2L308.6,439.9L308.6,439.9z"/>
		<path d="M467.1,511.5h-2.9L416,451.9h-0.2v28.8c0,11.9,0.4,18,0.9,21.5c0.6,4,3.5,5.5,10.9,5.9v2.6h-26.7V508
			c6.1-0.2,9-1.9,9.6-5.9c0.4-3.5,0.9-9.6,0.9-21.5v-24.5c0-8.1-0.1-10-2.1-12.5c-2.1-2.7-5.1-3.5-9.8-3.8v-2.6h16.2l46.8,56.9h0.2
			v-27c0-11.8-0.4-17.9-0.9-21.5c-0.6-3.9-3.6-5.5-10.9-5.9v-2.6h26.7v2.6c-6.1,0.2-9,1.9-9.6,5.9c-0.5,3.5-0.9,9.6-0.9,21.5
			L467.1,511.5L467.1,511.5z"/>
	</g>
</g>
<g id="Shield_2_color_CMYK">
	<g>
		<g>
			<g>
				<g>
					<path class="st0" d="M226.5,54.9c0.4,0.7,1,1.7,1.8,3.1c2.1,3.6,5.5,17.2,9.7,21.7c2.3-1.6,6.2-3.6,8.5-4.4
						c-0.5-0.9-2.9-5.1-5.6-8.6c-5.1-6.9-8.8-10.6-9.2-11.2C230.4,55.4,228,55.4,226.5,54.9z"/>
					<path class="st0" d="M265.1,73c1-7.1-1.3-18.9-2.7-21.8c-1.7-0.5-3.5-1.1-5-1.8c-0.2,0.9-1.5,5.7-1.9,12.8
						c-0.2,3.8-0.1,9.6,0.6,10.8C258.3,72.7,262,72.7,265.1,73z"/>
					<path class="st0" d="M298.4,114.8c0-21.4-16.5-38.1-37.5-38.1c-20.7,0-37.5,17.1-37.5,38.1c0,1,0.2,3.1,0.5,5.1
						c10.8-2.5,25.1-2.1,31.4,3c10.3-6,25.1-6.3,36,0.1c2.2-1.1,4.4-1.9,6.7-2.5C298.3,118.4,298.4,116.2,298.4,114.8z M252.7,101.8
						c-0.1,2.4-2.2,4.3-4.6,4.2c-2.4-0.1-4.3-2.2-4.1-4.6l0-0.5c-0.4-0.6-2.3-1.2-5.3,0.6c-1.5,0.9-3.1,0.3-0.6-1.9
						c2.7-2.4,5.3-3.8,7.5-4.1l0.1,0c3.8-0.3,8.8,0.5,11.1,1.5c1,0.4,0,5.2-0.3,5.1c-0.8-0.2-2.5-0.9-3.9-0.6L252.7,101.8z
						 M265.2,115.1c-0.8,2.3-8.6,3-10.1,0c-0.6-1.2-1.4-4.2-0.3-3.6c1.8,1,8.1,0.3,9.3,0c1.1-0.3,0.4-1.8,1-1.6
						C265.9,110.2,265.9,112.9,265.2,115.1z M283.7,102.5c-2-1.7-4.6-2.4-5.6-1.7l0,0.3c0.2,2.4-1.6,4.6-4,4.8
						c-2.4,0.2-4.5-1.6-4.7-4v-0.2c-1.6-0.5-4.1,0.4-4.4,0.2c-0.2-0.1-1.3-4.6,0.1-5.2c3.8-1.6,15.9-2.3,19.4,4.6
						C285,102.3,284.8,103.4,283.7,102.5z"/>
					<path class="st0" d="M286,54.5c-4.4,3.8-11.1,13-12,20.3c2.1,0.8,7.5,3.5,8.3,4.1c5.4-5.4,4.3-11.4,6.4-16
						c0.9-2,1.8-3.6,2.3-4.5C289.3,57.5,287.4,56.1,286,54.5z"/>
					<path class="st0" d="M312.3,69c-1,0.6-3.3,2-4,2.6c-5.2,4-16.5,9.3-19.1,12.3c2.1,1.9,5.1,5.2,6.5,8c1.3,0.1,4.9-3,12.1-11.6
						c2.3-2.8,4.8-4.2,9.2-6.7C315.3,72.2,313.7,70.7,312.3,69z"/>
					<path class="st0" d="M221.4,100.9c-2.4-2.4-7.3-4.6-13.6-4c-12.9,1-21.4,0.2-26.3-0.5c-8.4-1.2-13.6,0-17.7,0
						c-12.7,0,0.3,1.2,1.8,1.8c6,2.4,18,5.4,27.5,4.7c4.6-0.3,12.4,2.5,13.7,3c3.4,1.2,9.6,3.2,12.9,3.2
						C219.9,107.5,220.7,102.9,221.4,100.9z"/>
					<path class="st0" d="M231.8,84.8c-6.5-5.3-12.5-6.5-22-11c-2.2-1-5.8-3.5-6-3.6c-0.3-0.2-0.7-0.5-1.3-0.8
						c-0.6,1.8-1.7,4.3-2.7,5.6c1.5,1.9,12.1,14.3,25.7,18.1C227,90.5,229.4,87.4,231.8,84.8z"/>
					<path class="st0" d="M368.3,94.4c-0.6-0.1-3.1-0.4-4.6-0.4c-2,0-15.5,0.1-19.2,0.6c-7.5,1.2-22.1,0.6-30.1,0.3
						c-6-0.2-12.8,2.1-14.9,3.3c0,0,2.3,5.8,2.4,9.8c2.5,0.5,5-2.8,12.2-2.7c7.5,0.1,26.1-0.9,35.5-4.6c7-2.8,12.9-4.2,17.7-5.1
						C369,95.2,371.5,94.9,368.3,94.4z"/>
				</g>
				<path class="st0" d="M200,56.2c0.6-0.5,1.4-0.5,2.2-0.2c6.4,2.1,15.5,0.7,19.8-6.2c0.6-1,1.8-1.3,2.8-0.9
					c4.4,1.8,13.4,2.7,24.4-8.7c0.8-0.8,2.2-0.7,3.1,0c9.6,7.9,19.7,8.4,29.9,1.5c0.6-0.4,1.4-1,2.1-0.7c0.7,0.3,1.2,0.9,1.4,1.7
					c3.3,15.3,19,13.9,23.7,13.2c0.6-0.1,1.2,0.1,1.7,0.4c0.5,0.4,0.8,0.9,0.9,1.6c0.5,3.6,4.4,10.5,11.2,14.1
					c5.8,3,12.1,2.8,18.7-0.7c0.7-0.4,1.5-0.4,2.1,0c8.5,4.6,16.2,4.9,21.1,0.7c3.4-2.9,4.8-7.7,3.4-11.9c-1.5-4.6-6.1-7.5-12.5-7.9
					c-1.1-0.1-2-0.9-2.1-2c-0.6-3.7-2.6-6.7-5.9-8.8c-5-3.1-12.4-3.5-19.7-1c-0.6,0.2-1.4,0.1-1.9-0.2c-0.6-0.4-1-1-1.1-1.7
					c-0.4-2.9-1.6-6.8-5.2-8.9c-3.7-2.3-9.4-2.3-16.3,0.2c-1.1,0.4-2.3-0.1-2.8-1.1c-4.4-8.7-10.7-14.3-18.1-16.3
					c-6.6-1.8-13.9-0.5-20.1,3.6c-0.8,0.5-1.9,0.5-2.6-0.1c-6.2-4.8-13.7-6.3-20.5-4.2c-6.6,2-11.6,7.3-14.2,14.7
					c-0.2,0.6-0.6,1.1-1.2,1.4c-0.6,0.3-1.2,0.3-1.8,0c-10.1-4.1-18.4-4-23.9,0.3c-4.7,3.7-6.2,9.6-6,11.3c0.2,1.2-0.5,2.3-1.7,2.6
					l-2.4,0.6c-5.6,1.3-11.4,2.6-13.1,11.7c-0.2,1-1,1.8-2,1.9c-9.7,1-16.1,4.6-17.4,10.1c-0.9,3.8,0.8,8.1,4.2,10.5
					c3.5,2.4,7.6,2.1,11.5-0.7c0.6-0.5,1.4-0.6,2.2-0.3c5.7,2.2,15,1.8,20.6-2.8c4.1-3.3,5.7-8.2,4.8-14.6
					C199.1,57.5,199.4,56.7,200,56.2z M354.3,56.8c5.8-1.4,12.7,2.9,10.7,10.8c-0.3,1.4-3.6,1.4-3.5,0.1c0.5-6.6-2.7-7.1-7-7.1
					C352.9,60.6,353.1,57.1,354.3,56.8z M329.5,45.1c5.6-3.3,17.1-2.7,20.7,7.7c0.6,1.8-1.7,4.8-3.1,2.1c-4.3-8.1-11.3-8.1-17.1-5.8
					C328.6,49.7,327.5,46.3,329.5,45.1z M305.4,33.1c5.2-1.9,14.1-2.7,16.5,6.1c0.7,2.5-2.3,3.7-3,1.9c-2.4-6.4-7-6.2-12.4-4.4
					C304,37.6,304.6,33.4,305.4,33.1z M262.8,23.1c3.8-6.2,23.4-12,33.5,5.6c1.1,1.9-0.4,3-1.5,3.8c-0.8,0.6-1.3-0.7-1.8-1.6
					c-8.6-13.8-24-10.1-28.2-3.7C263.9,28.5,261.7,25,262.8,23.1z M231.1,24.1c3.4-5.6,15.3-14.1,25.8-4.7c1.2,1-0.2,4.9-1.5,4
					c-9.6-6.7-17.2-1.3-21.2,3.5C232.3,29.3,230.3,25.5,231.1,24.1z M174.4,63c-4,0-7.2,0.1-10.1,3.2c-3,3.3-2.3,5.2-2.8,5.7
					c-0.8,0.8-2.9-0.6-2.9-2.3c0.2-7.8,9.5-10.9,15-10.3C175.8,59.7,176.3,63,174.4,63z M190.8,49.9c-5.9,0.6-7.6,3.6-8.6,6.9
					c-0.4,1.3-3.7,0.4-3.2-2.1c1.6-7.4,9.4-9.2,12.3-8.5C192.1,46.3,191.8,49.8,190.8,49.9z M195.8,41.9c1.2-6.5,7.5-15.9,21.7-12.3
					c1.8,0.5,0.7,5-1.2,4.2c-10.4-4.2-15.7,3.9-17.3,10.2C198.8,45,195.3,44.6,195.8,41.9z"/>
				<g>
					<path class="st0" d="M166.9,121.7c-6.9-0.2-12.7,1.8-14.7,5.4c-3.7,6.6,0.7,12.4,3.3,14c6,3.7,11.7,1.3,12.2-1
						c-1.6-1.9-4.5-6.1-6.1-6.2c-2.3-0.1-2.1-3.1-0.4-3.7c4-1.3,7.9,6.4,13.7,10.6c5.1,3.7,12.3,1,12.3-0.5
						C184,137.4,180.2,122,166.9,121.7z"/>
					<path class="st0" d="M304.3,139.9c4.8,4.9,11.3,2.8,11.6,1.2c-0.5-1-3.5-5.5-5.3-6.5c-1.4-0.8-2.4-2.2-1.6-3.3
						c1.3-1.9,3.9-0.5,5.6,1.5c1.7,2.1,6.3,8.2,7.9,9.1c4.2,2.4,13.4,1.5,12.7-1.2c-2.6-4.1-4.3-12.4-11.9-16
						c-7.9-3.8-18-2.8-27.4,0.6C297.4,128.7,301.8,137.4,304.3,139.9z"/>
					<path class="st0" d="M248.8,124.4c-7.9-3.8-19.1-2.5-28.5,0.9c2.6,3.5,6.9,11.8,9.2,14.5c4.3,5.3,11.7,2.6,12,1
						c-0.5-1-4.5-6.2-6-7.1c-1.4-0.8-2.2-2.1-1.4-3.2c1.3-1.9,4.4,0,6.1,2c1.7,2.1,6.4,8,7.9,9.1c4.6,3.2,13.4,1.5,12.7-1.2
						C257.7,136.4,256.4,128.1,248.8,124.4z"/>
				</g>
			</g>
			<g>
				<g>
					<path class="st0" d="M189.6,185.9c-5.6,0.2-11.1,2.4-14.3,1.9v38.2c0,0,2,1.6,7.7-0.1c7.3-2.1,10.5,0.2,10.5,0.2v-38.6
						C193.4,187.6,192.6,185.8,189.6,185.9z"/>
					<path class="st0" d="M209.7,345.7c5.6,1.6,7.7,0.1,7.7,0.1v-38.2c-3.2,0.6-8.7-1.7-14.3-1.9c-3-0.1-3.9,1.7-3.9,1.7v38.5
						C199.1,345.9,202.4,343.6,209.7,345.7z"/>
					<path class="st0" d="M332.2,185.9c-3-0.1-3.9,1.7-3.9,1.7v38.6c0,0,3.2-2.3,10.6-0.2c5.6,1.6,7.7,0.1,7.7,0.1v-38.2
						C343.3,188.3,337.8,186.1,332.2,185.9z"/>
					<path class="st0" d="M203,185.9c-3-0.1-3.9,1.7-3.9,1.7v38.6c0,0,3.3-2.3,10.6-0.2c5.6,1.6,7.7,0.1,7.7,0.1v-38.2
						C214.1,188.3,208.6,186.1,203,185.9z"/>
					<path class="st0" d="M193.4,345.9v-38.5c0,0-0.9-1.8-3.9-1.7c-5.6,0.2-11.1,2.4-14.3,1.9v38.2c0,0,2,1.6,7.7-0.1
						C190.2,343.6,193.4,345.9,193.4,345.9z"/>
					<path class="st0" d="M329,307.3v38.5c0,0,3.2-2.3,10.5-0.2c5.6,1.6,7.7,0.1,7.7,0.1v-38.2c-3.2,0.6-8.7-1.7-14.3-1.9
						C329.9,305.6,329,307.3,329,307.3z"/>
					<path class="st0" d="M318.7,185.9c-5.6,0.2-11.1,2.4-14.3,1.9v38.2c0,0,2,1.6,7.7-0.1c7.3-2.1,10.5,0.2,10.5,0.2v-38.6
						C322.6,187.6,321.7,185.8,318.7,185.9z"/>
					<path class="st0" d="M305.1,307.5v38.2c0,0,2,1.6,7.7-0.1c7.3-2.1,10.6,0.2,10.6,0.2v-38.5c0,0-0.9-1.8-3.9-1.7
						C313.8,305.9,308.3,308.1,305.1,307.5z"/>
				</g>
				<g>
					<path class="st0" d="M370.8,168.9h-90.2V252h90.2V168.9z M357.4,235.1h-25.8v3.3h-10.7v-3.3h-25.8v-44.4h5.5v-8.1
						c5.6,1.4,14.7-1.8,18.8-1.8c4.6,0,6.9,2,6.9,2s2.3-2,6.9-2c4.1,0,13.2,3.1,18.8,1.8v8.1h5.5L357.4,235.1L357.4,235.1z"/>
					<path class="st0" d="M241.2,168.9H151V252h90.3L241.2,168.9L241.2,168.9z M227.5,235.1h-25.8v3.3h-10.7v-3.3h-25.9v-44.4h5.5
						v-8.1c5.6,1.4,14.7-1.8,18.8-1.8c4.6,0,6.9,2,6.9,2s2.3-2,6.9-2c4.1,0,13.2,3.1,18.8,1.8v8.1h5.5L227.5,235.1L227.5,235.1z"/>
					<path class="st0" d="M280.6,400.6c22.7-6.7,45.3-15.6,60.5-29.8c5.4-5,9.9-10.3,13.6-16h-23.3v3.3h-10.7v-3.3h-25.9v-44.4h5.5
						v-8.1c5.6,1.4,14.7-1.8,18.8-1.8c4.6,0,6.9,2,6.9,2s2.3-2,6.9-2c4.1,0,13.2,3.1,18.8,1.8v8.1h5.5v40.1
						c8.3-14.6,12.2-32.5,13.6-57.6l-0.2-3.7h-90.2L280.6,400.6L280.6,400.6z"/>
					<path class="st0" d="M165.1,350.1v-39.7h5.5v-8.1c5.6,1.4,14.7-1.8,18.8-1.8c4.6,0,6.9,2,6.9,2s2.3-2,6.9-2
						c4.1,0,13.2,3.1,18.8,1.8v8.1h5.5v44.4h-25.9v3.3h-10.7v-3.3h-23c3.7,5.7,8,10.9,13.2,15.8c14.4,13.7,36.9,23,60.2,29.9V289.3
						H151l0.2,3.5C152.1,315.8,156.3,334.5,165.1,350.1z"/>
				</g>
			</g>
		</g>
		<g>
			<g>
				<path d="M380.8,92c-1.4-1-15.7-2.8-18-2.8c-2.2,0-14.6,0.1-19.4,0.8c-7.5,1.1-20.2,1.1-29.8,0c-3.5-0.4-7.4,0.5-10.5,1.5
					c0.6-0.5,1.3-1.1,2.1-2c2.8-3,6-8.6,11.7-11.5c1.4-0.7,2.8-1.5,4.1-2.2c4.8,2.4,12.3,4.1,21.6-0.4c13.9,7,22.2,2.3,25.1-0.2
					c3.6-3.1,5.6-7.6,5.6-12.2c0-1.6-0.2-3.2-0.8-4.7c-2-6.1-7.5-10-15.1-10.9c-0.4-1.6-1.1-3.1-1.9-4.6c0.9-1.1,1.7-2.2,2.3-2.9
					c0.7-0.8,2.9-4.7-3.2-1.5c-0.3,0.2-0.9,0.5-1.7,0.9c-0.9-0.9-1.8-1.7-2.9-2.3c-5.7-3.5-13.4-4-21.4-1.8c-1.1-4.3-3.2-7.9-6.5-10
					c-3.5-2.2-7.9-2.8-13.1-2c0.3-0.8,0.6-1.5,0.9-2c2.3-4.9,1.1-6.1-1.4-4c-2.7,2.5-4.5,4.2-5.8,5.6c-4.9-8-11.4-13.4-19-15.5
					c-6.6-1.8-13.8-0.8-20.2,2.3c-0.4-3.3-0.8-6-1.3-7.6c-1.2-4-2.6-0.8-2.9,0.4c-0.3,1.7-0.6,4-1.1,6.6c-6.5-3.5-13.6-4.5-20.3-2.4
					c-7.4,2.3-13,7.9-16.2,15.6c-2.7-1-5.1-1.6-7.4-2c-1.3-1.8-3.4-4.1-6.1-6.6c-1.9-1.7-3.4-0.8-2.3,2.5c0.4,1.3,0.8,2.4,1.2,3.5
					c-5.3,0.3-9.1,2-11.7,4.1c-5.1,4-7.2,9.7-7.6,13.4c-0.3,0.1-0.7,0.2-0.7,0.2c-4.3,1-10.1,2.6-13.7,8.4c-0.6-0.4-1.1-0.7-1.3-0.8
					c-10.8-7.3-5.8,2.1-1.6,6.2c-14.3,2.1-18.4,9.1-19.4,13.2c-0.3,1.1-0.4,2.1-0.4,3.2c0,4.7,2.4,9.5,6.5,12.3
					c4.8,3.3,10.6,3.1,15.8-0.3c6.8,2.2,16.3,1.9,23.1-3.2c3.9,4.3,7.1,7.4,8.9,9.1c4.3,4.4,10.6,7.7,13.8,8.9
					c-3.2-1.3-8.5-2.6-13.8-1.9c-11.5,1.6-19.1-0.5-24-1c-8.1-0.8-16.4,0.6-20.5,0.6c-4.4,0-10.6,2.1-13.6,2.5
					c-3.3,0.5-3.1,2.7,1.5,3.9c4.5,1.2,12.9,2,15.2,3c7.3,3.2,19.6,5.9,28.2,5.2c6.1-0.5,12.3,2.6,13.9,3c3,0.9,10.6,3,13.7,3
					c0-0.2,0,4.4,0.3,6.6c-1.2,0.4-2.3,0.8-3.3,1.3c-3.4-2.1-18.5-8.3-36.8-0.6c-3.9-1.4-12.1-6-23.3-2.2
					c-13.9,4.6-11.6,17.6-7,23.5c6.2,8,17.6,6.4,21,2.4c7.5,5,15,3.3,20.6-0.2c3.6,2.2,21.5,5.8,35,0.2c1.8,1.4,9.3,5.4,18.9,0.5
					c5.5,3.3,14.6,3.6,19.3-0.6c1.7,1.5,6.8,3.6,17.6,3.4c13-0.2,16-2.1,17.9-3.7c2.8,1.3,10.1,5.2,19.2,1.3
					c4.9,3.1,14.6,2.9,19.9-0.6c9.6,4.4,27.1,2.4,31.5-0.6c7.9-5.5,4.1-16.8-4.6-22.2c-17-8.7-32.9-1.9-37,0.2
					c-5-3.4-15.5-5.6-26.4-3.6c0.2-1.3,0-2.8,0-4.5c0-0.2,0-0.3,0-0.5c2.2-0.7,5.2-3,11.5-3.4c8.5-0.6,28.5-0.3,38.6-5.5
					c5.7-3,25.6-6.9,28.3-8.5C383,94.1,382.2,92.9,380.8,92z M307.8,80.3c-7.2,8.6-10.9,11.7-12.1,11.6c-1.4-2.8-4.4-6.2-6.5-8
					c2.6-2.9,13.9-8.3,19.1-12.3c0.8-0.6,3.1-2,4-2.6c1.3,1.6,2.9,3.2,4.8,4.5C312.6,76.1,310.2,77.5,307.8,80.3z M203.8,61.5
					c6.1,1,13.1-0.5,18.3-5.2c6.3,10.2,6.5,19.5,12.6,25.9c-7.7-7.6-14.4-7.4-25.4-13.4c-1.9-1-4.7-2.9-5.5-3.3c0,0,0,0-0.1,0
					c0.1-0.9,0.2-1.9,0.2-3C203.8,62.2,203.8,61.9,203.8,61.5z M250.6,73l0.2,0.4c0,0-3.4-5.1-3.8-5.8c-1.1-1.8-2.6-3.6-4.3-5.7
					c-2.6-3.2-4.9-5.8-6.7-7.8c4.4-1.1,9.4-3.6,14.8-8.8c0.6,0.4,1.2,0.7,1.7,1.1c-0.3,1.8-0.6,3.3-0.8,4.5
					c-1.3,6.9-1.3,12.2-1.4,14.5C250.3,67.6,250.5,71,250.6,73z M241,66.6c2.7,3.5,5.1,7.7,5.6,8.6c-2.2,0.8-6.2,2.9-8.5,4.4
					c-4.3-4.5-7.6-18.1-9.7-21.7c-0.8-1.4-1.4-2.3-1.8-3.1c1.5,0.5,3.8,0.5,5.2,0.5C232.2,56,235.9,59.7,241,66.6z M260.9,76.7
					c21,0,37.5,16.7,37.5,38.1c0,1.4-0.1,3.6-0.4,5.6c-2.3,0.7-4.5,1.5-6.7,2.5c-10.9-6.4-25.7-6-36-0.1c-6.4-5.1-20.7-5.5-31.4-3
					c-0.3-2.1-0.5-4.1-0.5-5.1C223.4,93.7,240.2,76.7,260.9,76.7z M255.5,62.1c0.4-7.1,1.8-11.9,1.9-12.8c1.5,0.7,3.3,1.3,5,1.8
					c1.4,3,3.7,14.7,2.7,21.8c-3.2-0.3-6.9-0.2-9.1,0C255.4,71.7,255.3,65.9,255.5,62.1z M288.7,62.9c-2.1,4.6-1,10.6-6.4,16
					c-0.8-0.6-6.2-3.3-8.3-4.1c0.9-7.4,7.6-16.5,12-20.3c1.4,1.6,3.3,3,5,3.9C290.5,59.3,289.6,60.9,288.7,62.9z M294.5,61.4
					c0.2-0.3,0.4-0.7,0.6-1.1c4,1.4,8.5,1.7,12.8,1.2c0.4,1.4,1.1,3,2,4.5c0,0-0.1,0-0.1,0c-2.2,1-8.7,5.6-18.2,11
					c-2.5,1.4-4,2.7-4.9,3.6c1-1.4,2.3-3.3,3.1-5.4C291.6,70.9,291.1,67.4,294.5,61.4z M271.4,67c-1,2.7-1.4,4.1-1.8,5.6
					c0.8-5.7-0.7-14.1-2.3-21.3c4.9,0.1,9.9-1.2,14.8-4c0.4,1.1,0.9,2.1,1.4,3.1C280.6,52.9,274,60.3,271.4,67z M194.5,72.9
					c-5.6,4.6-14.9,5-20.6,2.8c-0.7-0.3-1.5-0.2-2.2,0.3c-3.8,2.8-8,3.1-11.5,0.7c-3.4-2.4-5.2-6.7-4.2-10.5
					c1.3-5.4,7.7-9.1,17.4-10.1c1-0.1,1.8-0.9,2-1.9c1.8-9.1,7.5-10.4,13.1-11.7l2.4-0.6c1.1-0.3,1.8-1.4,1.7-2.6
					c-0.2-1.7,1.3-7.6,6-11.3c5.5-4.3,13.8-4.4,23.9-0.3c0.6,0.2,1.2,0.2,1.8,0c0.6-0.3,1-0.7,1.2-1.4c2.5-7.5,7.6-12.7,14.2-14.7
					c6.8-2.1,14.2-0.6,20.5,4.2c0.8,0.6,1.8,0.6,2.6,0.1c6.2-4,13.5-5.3,20.1-3.6c7.4,2,13.6,7.6,18.1,16.3c0.5,1,1.7,1.5,2.8,1.1
					c6.9-2.4,12.6-2.5,16.3-0.2c3.5,2.2,4.8,6.1,5.2,8.9c0.1,0.7,0.5,1.3,1.1,1.7c0.6,0.4,1.3,0.5,1.9,0.2c7.3-2.5,14.7-2.1,19.7,1
					c3.3,2,5.3,5.1,5.9,8.8c0.2,1.1,1,1.9,2.1,2c6.4,0.4,11,3.3,12.5,7.9c1.4,4.2,0,8.9-3.4,11.9c-4.9,4.2-12.5,3.9-21.1-0.7
					c-0.7-0.4-1.5-0.4-2.1,0c-6.6,3.5-12.9,3.7-18.7,0.7c-6.8-3.5-10.7-10.5-11.2-14.1c-0.1-0.6-0.4-1.2-0.9-1.6
					c-0.5-0.4-1.1-0.5-1.7-0.4c-4.7,0.8-20.4,2.1-23.7-13.2c-0.2-0.8-0.7-1.4-1.4-1.7c-0.7-0.3-1.5,0.3-2.1,0.7
					c-10.2,6.9-20.2,6.4-29.9-1.5c-0.9-0.7-2.3-0.9-3.1,0c-11,11.3-20,10.5-24.4,8.7c-1-0.4-2.2-0.1-2.8,0.9
					c-4.3,6.8-13.4,8.3-19.8,6.2c-0.8-0.2-1.6-0.3-2.2,0.2c-0.6,0.5-0.9,1.3-0.8,2.1C200.1,64.6,198.5,69.5,194.5,72.9z M199.8,75
					c1-1.4,2.2-3.8,2.7-5.6c0.6,0.4,1.1,0.7,1.3,0.8c0.2,0.1,3.8,2.6,6,3.6c9.5,4.5,15.5,5.7,22,11c-2.4,2.6-4.8,5.7-6.3,8.3
					C211.9,89.3,201.2,76.9,199.8,75z M206.8,105.8c-1.3-0.5-9.1-3.3-13.7-3c-9.5,0.7-21.5-2.3-27.5-4.7c-1.5-0.6-14.6-1.8-1.8-1.8
					c4.2,0,9.4-1.2,17.7,0c4.9,0.7,13.4,1.5,26.3,0.5c6.3-0.5,11.2,1.6,13.6,4c-0.7,1.9-1.4,6.6-1.6,8.1
					C216.4,109.1,210.3,107.1,206.8,105.8z M174.8,140.8c-5.8-4.2-9.7-11.9-13.7-10.6c-1.7,0.6-1.9,3.6,0.4,3.7
					c1.6,0,4.4,4.3,6.1,6.2c-0.4,2.3-6.1,4.6-12.2,1c-2.6-1.6-7-7.3-3.3-14c2-3.6,7.8-5.6,14.7-5.4c13.4,0.3,17.1,15.7,20.3,18.6
					C187.1,141.8,179.9,144.6,174.8,140.8z M194.2,140.6c-5-2.3-9-14.1-10.5-15.6c-0.6-0.6,8.9-4.1,18.6-3.3
					c16.5,1.4,16.5,11.8,20.6,17C224.3,140.7,209.4,145,194.2,140.6z M248.1,141.7c-1.5-1.1-6.2-7-7.9-9.1c-1.7-2-4.8-3.9-6.1-2
					c-0.8,1.1,0,2.4,1.4,3.2c1.5,0.9,5.5,6.1,6,7.1c-0.3,1.6-7.7,4.3-12-1c-2.2-2.8-6.6-11-9.2-14.5c9.4-3.4,20.5-4.6,28.5-0.9
					c7.6,3.6,8.9,12,11.9,16C261.5,143.2,252.7,144.9,248.1,141.7z M268.8,141.5c-5-2.3-9-14.1-10.5-15.6c-0.6-0.6,8.9-4.1,18.6-3.2
					c16.5,1.4,16.5,11.8,20.6,17C298.9,141.5,284.1,145.9,268.8,141.5z M351.1,122.1c16.5,1.4,20.4,12.4,18.8,16
					c-1.4,3.1-11.5,7.2-26.8,2.8c-5-2.3-9.1-14.1-10.5-15.6C331.9,124.7,341.5,121.2,351.1,122.1z M323.2,124.7
					c7.6,3.6,9.4,11.9,11.9,16c0.8,2.7-8.5,3.6-12.7,1.2c-1.6-0.9-6.2-7-7.9-9.1c-1.7-2-4.3-3.4-5.6-1.5c-0.8,1.1,0.2,2.5,1.6,3.3
					c1.8,1,4.8,5.5,5.3,6.5c-0.3,1.6-6.8,3.7-11.6-1.2c-2.4-2.5-6.8-11.2-8.5-14.6C305.1,121.9,315.3,120.9,323.2,124.7z
					 M367.4,95.5c-4.8,1-10.7,2.4-17.7,5.1c-9.4,3.7-28,4.7-35.5,4.6c-7.2-0.1-9.7,3.1-12.2,2.7c-0.2-4-2.4-9.8-2.4-9.8
					c2.1-1.1,9-3.5,14.9-3.3c8,0.3,22.6,0.9,30.1-0.3c3.7-0.6,17.1-0.6,19.2-0.6c1.6,0,4,0.3,4.6,0.4
					C371.5,94.9,369,95.2,367.4,95.5z"/>
				<g>
					<path d="M174.4,63c-4,0-7.2,0.1-10.1,3.2c-3,3.3-2.3,5.2-2.8,5.7c-0.8,0.8-2.9-0.6-2.9-2.3c0.2-7.8,9.5-10.9,15-10.3
						C175.8,59.7,176.3,63,174.4,63"/>
					<path d="M190.8,49.9c-5.9,0.6-7.6,3.6-8.6,6.9c-0.4,1.3-3.7,0.4-3.2-2.1c1.6-7.4,9.4-9.2,12.3-8.5
						C192.1,46.3,191.8,49.8,190.8,49.9"/>
					<path d="M216.4,33.9c-10.4-4.2-15.7,3.9-17.3,10.2c-0.2,0.9-3.7,0.5-3.2-2.2c1.2-6.5,7.5-15.9,21.7-12.3
						C219.3,30.1,218.2,34.6,216.4,33.9"/>
					<path d="M255.4,23.4c-9.6-6.7-17.2-1.3-21.2,3.5c-1.9,2.3-3.9-1.5-3.1-2.9c3.4-5.6,15.3-14.1,25.8-4.7
						C258.1,20.5,256.7,24.3,255.4,23.4"/>
					<path d="M294.8,32.5c-0.8,0.6-1.3-0.7-1.8-1.6c-8.6-13.8-24-10.1-28.2-3.7c-0.8,1.3-3.1-2.2-2-4c3.8-6.2,23.4-12,33.5,5.6
						C297.3,30.6,295.9,31.7,294.8,32.5"/>
					<path d="M318.9,41.2c-2.4-6.4-7-6.2-12.4-4.4c-2.5,0.8-1.9-3.4-1.1-3.7c5.2-1.9,14.1-2.7,16.5,6.1
						C322.5,41.7,319.5,42.9,318.9,41.2"/>
					<path d="M347.1,54.9c-4.3-8.1-11.3-8.1-17.1-5.8c-1.3,0.5-2.5-2.9-0.4-4.1c5.6-3.3,17.1-2.7,20.7,7.7
						C350.8,54.6,348.5,57.6,347.1,54.9"/>
					<path d="M365,67.6c-0.3,1.4-3.6,1.4-3.5,0.1c0.5-6.6-2.7-7.1-7-7.1c-1.6,0-1.5-3.5-0.3-3.8C360,55.5,367,59.8,365,67.6"/>
				</g>
				<g>
					<path d="M252.7,101.8c-0.1,2.4-2.2,4.3-4.6,4.2c-2.4-0.1-4.3-2.2-4.1-4.6l0-0.5c-0.4-0.6-2.3-1.2-5.3,0.6
						c-1.5,0.9-3.1,0.3-0.6-1.9c2.7-2.4,5.3-3.8,7.5-4.1l0.1,0c3.8-0.3,8.8,0.5,11.1,1.5c1,0.4,0,5.2-0.3,5.1
						c-0.8-0.2-2.5-0.9-3.9-0.6L252.7,101.8"/>
					<path d="M265.2,115.1c-0.8,2.3-8.6,3-10.1,0c-0.6-1.2-1.4-4.2-0.3-3.6c1.8,1,8.1,0.3,9.3,0c1.1-0.3,0.4-1.8,1-1.6
						C265.9,110.2,265.9,112.9,265.2,115.1"/>
					<path d="M283.7,102.5c-2-1.7-4.6-2.4-5.6-1.7l0,0.3c0.2,2.4-1.6,4.6-4,4.8c-2.4,0.2-4.5-1.6-4.7-4v-0.2
						c-1.6-0.5-4.1,0.4-4.4,0.2c-0.2-0.1-1.3-4.6,0.1-5.2c3.8-1.6,15.9-2.3,19.4,4.6C285,102.3,284.8,103.4,283.7,102.5"/>
				</g>
			</g>
			<g>
				<path d="M280.6,168.9h90.2V252h-90.2V168.9z M151,168.9h90.3V252H151V168.9z M241.2,400.5c-23.2-6.9-45.8-16.2-60.2-29.9
					c-5.1-4.9-9.5-10.1-13.2-15.8h23v3.3h10.7v-3.3h25.9v-44.4H222v-8.1c-5.6,1.4-14.7-1.8-18.8-1.8c-4.5,0-6.9,2-6.9,2
					s-2.3-2-6.9-2c-4.1,0-13.2,3.1-18.8,1.8v8.1h-5.5v39.7c-8.8-15.6-13-34.4-13.9-57.3l-0.2-3.5h90.3L241.2,400.5L241.2,400.5z
					 M175.2,345.8v-38.2c3.2,0.6,8.7-1.7,14.3-1.9c3-0.1,3.9,1.7,3.9,1.7v38.5c0,0-3.3-2.3-10.6-0.2
					C177.3,347.3,175.2,345.8,175.2,345.8z M199.1,345.9v-38.5c0,0,0.9-1.8,3.9-1.7c5.6,0.2,11.1,2.4,14.3,1.9v38.2
					c0,0-2,1.6-7.7-0.1C202.4,343.6,199.1,345.9,199.1,345.9z M275.9,402.1l-14.9,3.9l-15-3.9V284.2h-95v-27h95v-88.2h29.9v88.2
					h94.9v27h-94.9L275.9,402.1L275.9,402.1z M357.4,350.6v-40.1h-5.5v-8.1c-5.6,1.4-14.7-1.8-18.8-1.8c-4.5,0-6.9,2-6.9,2
					s-2.3-2-6.9-2c-4.1,0-13.2,3.1-18.8,1.8v8.1h-5.5v44.4h25.9v3.3h10.7v-3.3h23.3c-3.8,5.7-8.2,10.9-13.6,16
					c-15.3,14.2-37.8,23.1-60.5,29.8V289.3h90.2l0.2,3.7C369.6,318.1,365.7,336,357.4,350.6z M347.2,307.5v38.2c0,0-2,1.6-7.7-0.1
					c-7.3-2.1-10.5,0.2-10.5,0.2v-38.5c0,0,0.8-1.8,3.9-1.7C338.5,305.9,344,308.1,347.2,307.5z M323.3,307.3v38.5
					c0,0-3.3-2.3-10.6-0.2c-5.6,1.6-7.7,0.1-7.7,0.1v-38.2c3.2,0.6,8.7-1.7,14.3-1.9C322.4,305.6,323.3,307.3,323.3,307.3z
					 M145.4,163.3v123c0,40.6,10,68.8,31.4,88.6c21.2,19.6,53,29.6,84.1,37.1c31.9-7.7,62.7-17.2,84.1-37.1
					c21.4-19.8,31.3-47.9,31.3-88.6v-123H145.4z"/>
				<path d="M222,190.7v-8.1c-5.6,1.3-14.7-1.8-18.8-1.8c-4.5,0-6.9,2-6.9,2s-2.3-2-6.9-2c-4.1,0-13.2,3.1-18.8,1.8v8.1h-5.5v44.4
					h25.9v3.3h10.7v-3.3h25.8v-44.4L222,190.7L222,190.7z M193.4,226.1c0,0-3.3-2.3-10.5-0.2c-5.6,1.6-7.7,0.1-7.7,0.1v-38.2
					c3.2,0.6,8.7-1.7,14.3-1.9c3-0.1,3.9,1.7,3.9,1.7V226.1z M217.4,225.9c0,0-2,1.6-7.7-0.1c-7.3-2.1-10.6,0.2-10.6,0.2v-38.6
					c0,0,0.9-1.8,3.9-1.7c5.6,0.2,11.1,2.4,14.3,1.9V225.9z"/>
				<path d="M351.8,190.7v-8.1c-5.6,1.3-14.7-1.8-18.8-1.8c-4.5,0-6.9,2-6.9,2s-2.3-2-6.9-2c-4.1,0-13.2,3.1-18.8,1.8v8.1h-5.5v44.4
					h25.8v3.3h10.7v-3.3h25.8v-44.4L351.8,190.7L351.8,190.7z M322.6,226.1c0,0-3.3-2.3-10.5-0.2c-5.6,1.6-7.7,0.1-7.7,0.1v-38.2
					c3.2,0.6,8.7-1.7,14.3-1.9c3-0.1,3.9,1.7,3.9,1.7L322.6,226.1L322.6,226.1z M346.5,225.9c0,0-2,1.6-7.7-0.1
					c-7.3-2.1-10.6,0.2-10.6,0.2v-38.6c0,0,0.9-1.8,3.9-1.7c5.6,0.2,11.1,2.4,14.3,1.9L346.5,225.9L346.5,225.9z"/>
			</g>
		</g>
		<g>
			<polygon class="st1" points="245.9,402 260.9,405.9 275.9,402.1 275.9,284.2 370.8,284.2 370.8,257.1 275.9,257.1 275.9,168.9 
				245.9,168.9 245.9,257.1 151,257.1 151,284.2 245.9,284.2 			"/>
			<g>
				<path class="st1" d="M202.2,121.8c-9.7-0.8-19.2,2.7-18.6,3.3c1.5,1.5,5.5,13.3,10.5,15.6c15.3,4.4,30.1,0,28.7-1.8
					C218.8,133.6,218.7,123.2,202.2,121.8z"/>
				<path class="st1" d="M276.8,122.6c-9.7-0.8-19.2,2.7-18.6,3.2c1.5,1.5,5.5,13.3,10.5,15.6c15.3,4.4,30.1,0,28.7-1.9
					C293.4,134.5,293.3,124.1,276.8,122.6z"/>
				<path class="st1" d="M343.1,140.9c15.3,4.4,25.4,0.3,26.8-2.8c1.6-3.6-2.3-14.6-18.8-16c-9.7-0.8-19.2,2.7-18.6,3.2
					C334,126.8,338,138.6,343.1,140.9z"/>
			</g>
		</g>
	</g>
</g>
</svg>
