<?xml version="1.0" encoding="utf-8"?>
<!-- Generator: Adobe Illustrator 28.2.0, SVG Export Plug-In . SVG Version: 6.00 Build 0)  -->
<svg version="1.1" xmlns="http://www.w3.org/2000/svg" xmlns:xlink="http://www.w3.org/1999/xlink" x="0px" y="0px"
	 viewBox="0 0 311.76 362.52" style="enable-background:new 0 0 311.76 362.52;" xml:space="preserve">
<style type="text/css">
	.st0{fill:#FFFFFF;}
	.st1{fill:#ED1C24;}
</style>
<g id="Brown_Stacked">
	<g>
		<path d="M14.07,334.3v17.43c0,5.36,1.04,7.19,6.88,7.12c6.71,0,12.39-3.36,12.39-11.84c0-8.71-6.4-12.7-14.63-12.7H14.07z
			 M14.07,331.97h5.04c7.67,0,11.51-3.6,11.51-10.15c0-4.8-1.99-10.15-11.43-10.15c-2.63,0-3.75,0.24-4.4,0.48
			c-0.47,0.15-0.72,0.47-0.72,2.07V331.97z M21.9,309.35c5.75,0,9.03,0.96,11.68,2.81c2.71,1.92,4.15,4.79,4.15,8.79
			c0,7.04-6.64,10.47-10.46,11.43v0.15c7.27,1.04,13.83,5.36,13.83,13.44c0,5.67-2.8,9.67-7.43,12.3c-4.08,2.24-9.2,3.04-15.27,3.04
			H0v-1.85c6.72-0.48,7.36-1.04,7.36-9.74v-28.78c-0.08-8.72-0.56-9.27-6.88-9.75v-1.85H21.9z"/>
		<path d="M68.91,336.14h4.64c3.28,0,5.83-0.4,8-2.16c3.43-2.72,4.63-6.63,4.63-10.56c0-8.39-6.08-11.74-12.07-11.74
			c-2.72,0-3.84,0.16-4.48,0.4c-0.47,0.15-0.71,0.56-0.71,2.16V336.14z M68.91,349.73c0,8.7,0.64,9.27,7.2,9.74v1.85H54.83v-1.85
			c6.72-0.48,7.36-1.04,7.36-9.74v-28.78c0-8.72-0.64-9.27-7.04-9.75v-1.85h20.31c5.11,0,9.67,0.72,12.62,2.73
			c3.19,2,5.28,5.59,5.28,10.23c0,6.64-4.08,11.36-10.56,13.99c1.45,2.4,4.72,7.93,7.12,11.44c2.88,4.25,4.56,6.39,6.72,8.79
			c1.67,2,3.11,3.28,6,4l-0.17,1.53h-1.12c-9.19-0.25-11.99-3.05-15.02-7.44c-2.48-3.62-5.84-9.52-8.08-13.28
			c-1.27-2.07-2.55-2.87-5.03-2.87h-4.32V349.73z"/>
		<path d="M136.55,310.8c-9.44,0-17.43,7.75-17.43,22.78c0,15.43,8.07,26.3,19.75,26.3c9.59,0,17.43-7.43,17.43-22.3
			C156.29,320.31,147.97,310.8,136.55,310.8 M164.04,334.61c0,16.63-11.59,27.91-26.86,27.91c-15.11,0-25.82-11.53-25.82-26.62
			c0-13.44,9.43-27.74,27.25-27.74C152.45,308.16,164.04,318.87,164.04,334.61"/>
		<path d="M190.18,311.2l-2.48,0.32c-3.6,0.48-4.08,1.19-2.97,4.72l10.8,34.05h0.15l12.78-40.12h1.93l14.46,40.05h0.17
			c3.27-10.08,7.9-26.94,9.27-32.69c1.11-4.64,0.7-5.6-2.88-6l-2.32-0.32v-1.85h16.94v1.85c-5.27,0.64-5.83,0.96-8.47,8.23
			c-0.72,2-6.56,20.38-13.27,42.37h-2.17l-14.38-39.09l-0.16,0.16l-13.03,38.93h-2.24l-13.83-42.93c-2.16-6.64-3.36-7.19-7.92-7.67
			v-1.85h19.59V311.2z"/>
		<path d="M304.25,361.88h-2.07l-34.71-42.13h-0.17v20.37c0,8.4,0.32,12.72,0.64,15.19c0.41,2.8,2.55,3.91,7.84,4.15v1.85h-19.19
			v-1.85c4.4-0.16,6.47-1.36,6.88-4.15c0.31-2.47,0.64-6.79,0.64-15.19v-17.34c0-5.76-0.08-7.05-1.52-8.88
			c-1.53-1.92-3.67-2.47-7.03-2.71v-1.85h11.66l33.67,40.3h0.16v-19.11c0-8.39-0.31-12.7-0.63-15.19c-0.4-2.79-2.57-3.91-7.84-4.15
			v-1.85h19.18v1.85c-4.39,0.16-6.47,1.36-6.87,4.15c-0.33,2.49-0.63,6.79-0.63,15.19V361.88z"/>
	</g>
</g>
<g id="Shield_2_color_CMYK">
	<g>
		<g>
			<g>
				<g>
					<path class="st0" d="M131.18,38.63c0.32,0.52,0.74,1.2,1.32,2.18c1.54,2.55,3.93,12.15,7.01,15.33
						c1.64-1.11,4.49-2.55,6.1-3.13c-0.37-0.62-2.1-3.58-4.02-6.09c-3.7-4.91-6.35-7.53-6.65-7.96
						C133.94,38.95,132.24,39,131.18,38.63z"/>
					<path class="st0" d="M158.93,51.42c0.73-5.03-0.94-13.37-1.93-15.46c-1.25-0.32-2.55-0.76-3.61-1.27
						c-0.14,0.64-1.08,4.05-1.4,9.06c-0.17,2.69-0.1,6.78,0.4,7.67C153.99,51.26,156.65,51.2,158.93,51.42z"/>
					<path class="st0" d="M182.86,81.03c0-15.12-11.85-26.97-26.98-26.97c-14.9,0-26.98,12.08-26.98,26.97
						c0,0.71,0.16,2.16,0.39,3.62c7.76-1.8,18.05-1.51,22.62,2.11c7.4-4.22,18.06-4.49,25.87,0.06c1.55-0.78,3.17-1.34,4.8-1.8
						C182.79,83.57,182.86,82.04,182.86,81.03z M149.98,71.83c-0.09,1.73-1.56,3.06-3.3,2.98c-1.73-0.08-3.06-1.57-2.97-3.29
						l0.03-0.35c-0.27-0.41-1.68-0.87-3.78,0.4c-1.05,0.65-2.23,0.2-0.4-1.38c1.94-1.69,3.79-2.67,5.41-2.87l0.05-0.01
						c2.74-0.19,6.3,0.37,7.97,1.05c0.69,0.28-0.03,3.67-0.18,3.63c-0.57-0.13-1.8-0.65-2.83-0.41L149.98,71.83z M158.98,81.23
						c-0.55,1.6-6.22,2.11-7.26,0.03c-0.41-0.83-0.98-2.96-0.21-2.52c1.26,0.73,5.82,0.21,6.68,0c0.76-0.2,0.26-1.26,0.74-1.13
						C159.49,77.78,159.49,79.72,158.98,81.23z M172.32,72.36c-1.42-1.17-3.29-1.69-4.01-1.17l0.03,0.24
						c0.15,1.73-1.13,3.25-2.85,3.4c-1.73,0.15-3.26-1.13-3.4-2.86v-0.13c-1.13-0.36-2.93,0.27-3.17,0.17
						c-0.15-0.07-0.91-3.26,0.09-3.67c2.71-1.1,11.43-1.64,13.96,3.25C173.26,72.19,173.07,72.98,172.32,72.36z"/>
					<path class="st0" d="M173.96,38.33c-3.17,2.69-8.02,9.19-8.64,14.4c1.49,0.6,5.42,2.48,5.96,2.92
						c3.9-3.85,3.11-8.08,4.63-11.36c0.66-1.41,1.3-2.53,1.67-3.17C176.31,40.44,174.95,39.46,173.96,38.33z"/>
					<path class="st0" d="M192.88,48.64c-0.7,0.39-2.35,1.39-2.9,1.81c-3.75,2.82-11.87,6.61-13.74,8.69
						c1.49,1.32,3.69,3.69,4.69,5.68c0.91,0.04,3.53-2.09,8.73-8.21c1.67-1.95,3.44-2.98,6.65-4.77
						C194.99,50.89,193.85,49.79,192.88,48.64z"/>
					<path class="st0" d="M127.46,71.21c-1.75-1.73-5.24-3.23-9.78-2.86c-9.29,0.73-15.41,0.13-18.92-0.36
						c-6.01-0.86-9.75-0.02-12.75-0.02c-9.14,0,0.25,0.82,1.33,1.24c4.3,1.7,12.98,3.85,19.8,3.35c3.33-0.23,8.91,1.8,9.87,2.13
						c2.45,0.88,6.89,2.3,9.29,2.26C126.43,75.85,126.99,72.58,127.46,71.21z"/>
					<path class="st0" d="M134.95,59.8c-4.67-3.77-8.97-4.57-15.82-7.79c-1.55-0.73-4.16-2.48-4.29-2.56
						c-0.19-0.13-0.53-0.35-0.95-0.6c-0.4,1.28-1.22,3.02-1.97,4c1.06,1.38,8.72,10.12,18.52,12.84
						C131.51,63.81,133.24,61.65,134.95,59.8z"/>
					<path class="st0" d="M233.15,66.56c-0.46-0.07-2.21-0.31-3.32-0.3c-1.47,0.01-11.16,0.05-13.81,0.46
						c-5.42,0.85-15.9,0.41-21.65,0.19c-4.29-0.17-9.24,1.51-10.75,2.32c0,0,1.65,4.14,1.76,6.95c1.83,0.32,3.58-1.98,8.8-1.9
						c5.43,0.09,18.8-0.64,25.56-3.27c5.05-1.96,9.29-2.94,12.73-3.64C233.62,67.14,235.44,66.91,233.15,66.56z"/>
				</g>
				<path class="st0" d="M112.09,39.53c0.43-0.37,1.03-0.32,1.58-0.15c4.58,1.48,11.15,0.47,14.22-4.38
					c0.43-0.68,1.28-0.92,2.02-0.62c3.17,1.28,9.65,1.88,17.55-6.14c0.59-0.6,1.55-0.53,2.21,0.01c6.94,5.57,14.17,5.92,21.5,1.04
					c0.45-0.3,1.03-0.69,1.54-0.49c0.51,0.21,0.88,0.65,0.99,1.18c2.34,10.83,13.65,9.87,17.05,9.32c0.44-0.07,0.89,0.04,1.24,0.3
					c0.36,0.26,0.59,0.66,0.65,1.1c0.37,2.53,3.18,7.45,8.04,9.96c4.16,2.14,8.68,1.97,13.47-0.49c0.48-0.25,1.05-0.25,1.53,0.01
					c6.14,3.28,11.66,3.47,15.15,0.53c2.46-2.07,3.46-5.45,2.48-8.4c-1.09-3.29-4.36-5.34-8.98-5.62c-0.78-0.05-1.41-0.63-1.53-1.39
					c-0.41-2.63-1.88-4.77-4.25-6.22c-3.61-2.2-8.91-2.46-14.2-0.69c-0.46,0.15-0.98,0.1-1.39-0.16s-0.7-0.69-0.77-1.17
					c-0.29-2.03-1.17-4.78-3.71-6.33c-2.68-1.64-6.73-1.6-11.71,0.12c-0.77,0.27-1.63-0.07-2-0.8c-3.2-6.14-7.7-10.12-13.01-11.53
					c-4.75-1.26-10.03-0.34-14.49,2.52c-0.58,0.38-1.34,0.35-1.89-0.07c-4.48-3.37-9.85-4.44-14.72-2.95
					c-4.75,1.45-8.36,5.15-10.18,10.43c-0.15,0.43-0.46,0.78-0.88,0.96c-0.41,0.19-0.88,0.2-1.3,0.03
					c-7.27-2.92-13.21-2.85-17.17,0.22c-3.4,2.63-4.45,6.77-4.3,7.98c0.11,0.84-0.39,1.61-1.21,1.81l-1.74,0.42
					c-4.03,0.92-8.2,1.87-9.45,8.29c-0.14,0.71-0.73,1.25-1.46,1.33c-7,0.7-11.58,3.29-12.55,7.12c-0.68,2.7,0.57,5.75,3.05,7.42
					c2.49,1.69,5.49,1.51,8.24-0.48c0.45-0.33,1.04-0.41,1.56-0.21c4.11,1.57,10.79,1.26,14.83-1.98c2.93-2.35,4.08-5.82,3.42-10.31
					C111.44,40.46,111.65,39.89,112.09,39.53z M223.06,39.99c4.16-0.96,9.15,2.08,7.73,7.66c-0.24,0.96-2.59,1.02-2.51,0.04
					c0.36-4.68-1.95-5.05-5.03-5.02C222.09,42.69,222.18,40.18,223.06,39.99z M205.26,31.69c4.04-2.31,12.31-1.9,14.88,5.48
					c0.44,1.25-1.22,3.38-2.26,1.49c-3.11-5.71-8.13-5.7-12.32-4.1C204.62,34.93,203.77,32.54,205.26,31.69z M187.89,23.19
					c3.75-1.33,10.14-1.92,11.84,4.35c0.49,1.75-1.66,2.59-2.14,1.36c-1.74-4.54-5.02-4.36-8.93-3.11
					C186.86,26.38,187.29,23.39,187.89,23.19z M157.24,16.13c2.7-4.4,16.84-8.49,24.09,3.95c0.77,1.35-0.26,2.14-1.07,2.7
					c-0.57,0.41-0.92-0.52-1.3-1.13c-6.16-9.74-17.29-7.17-20.29-2.65C158.07,19.9,156.45,17.42,157.24,16.13z M134.46,16.84
					c2.48-3.93,11-9.99,18.55-3.32c0.85,0.74-0.16,3.48-1.11,2.84c-6.91-4.75-12.34-0.94-15.22,2.5
					C135.31,20.48,133.87,17.79,134.46,16.84z M93.69,44.35c-2.89,0-5.21,0.06-7.24,2.27c-2.17,2.35-1.65,3.65-2.05,4.07
					c-0.59,0.58-2.08-0.45-2.06-1.61c0.13-5.54,6.82-7.7,10.79-7.26C94.64,42.01,95.03,44.35,93.69,44.35z M105.44,35.06
					c-4.23,0.46-5.46,2.53-6.22,4.89c-0.31,0.89-2.68,0.25-2.3-1.5c1.12-5.21,6.77-6.48,8.82-6.03
					C106.43,32.55,106.22,34.98,105.44,35.06z M109.06,29.44c0.87-4.6,5.36-11.29,15.63-8.68c1.26,0.32,0.52,3.52-0.84,2.98
					c-7.49-2.94-11.26,2.75-12.47,7.23C111.21,31.58,108.7,31.35,109.06,29.44z"/>
				<g>
					<path class="st0" d="M88.24,85.91c-4.97-0.11-9.11,1.3-10.57,3.85c-2.69,4.7,0.47,8.75,2.36,9.88c4.32,2.6,8.44,0.9,8.74-0.7
						c-1.18-1.33-3.22-4.34-4.36-4.36c-1.66-0.04-1.53-2.2-0.32-2.59c2.89-0.95,5.69,4.52,9.84,7.49c3.69,2.64,8.87,0.71,8.87-0.38
						C100.55,97.05,97.85,86.12,88.24,85.91z"/>
					<path class="st0" d="M187.1,98.83c3.44,3.48,8.12,1.99,8.34,0.85c-0.38-0.69-2.55-3.89-3.83-4.58
						c-1.04-0.57-1.72-1.53-1.15-2.32c0.94-1.32,2.81-0.38,4.01,1.06c1.2,1.47,4.51,5.78,5.67,6.44c3.01,1.67,9.65,1.07,9.12-0.87
						c-1.84-2.91-3.11-8.79-8.58-11.36c-5.68-2.68-12.97-1.98-19.71,0.42C182.18,90.89,185.34,97.06,187.1,98.83z"/>
					<path class="st0" d="M147.2,87.85c-5.69-2.68-13.72-1.79-20.47,0.61c1.87,2.49,4.98,8.32,6.59,10.28
						c3.11,3.78,8.42,1.87,8.64,0.73c-0.37-0.7-3.22-4.39-4.3-5c-1-0.57-1.58-1.49-1.02-2.28c0.94-1.32,3.16,0,4.36,1.45
						c1.2,1.46,4.57,5.68,5.68,6.43c3.32,2.25,9.65,1.08,9.12-0.85C153.61,96.34,152.66,90.42,147.2,87.85z"/>
				</g>
			</g>
			<g>
				<g>
					<path class="st0" d="M104.57,131.37c-4.04,0.12-7.99,1.71-10.31,1.31v27.05c0,0,1.47,1.11,5.52-0.04
						c5.25-1.49,7.58,0.15,7.58,0.15v-27.3C107.36,132.55,106.75,131.3,104.57,131.37z"/>
					<path class="st0" d="M119.06,244.52c4.05,1.16,5.52,0.04,5.52,0.04V217.5c-2.32,0.4-6.27-1.19-10.32-1.32
						c-2.17-0.07-2.79,1.17-2.79,1.17v27.29C111.47,244.65,113.82,243.02,119.06,244.52z"/>
					<path class="st0" d="M207.16,131.37c-2.17-0.07-2.79,1.17-2.79,1.17v27.3c0,0,2.33-1.64,7.59-0.15
						c4.05,1.15,5.52,0.04,5.52,0.04v-27.05C215.16,133.08,211.2,131.49,207.16,131.37z"/>
					<path class="st0" d="M114.26,131.37c-2.17-0.07-2.79,1.17-2.79,1.17v27.3c0,0,2.34-1.64,7.59-0.15
						c4.05,1.15,5.52,0.04,5.52,0.04v-27.05C122.26,133.08,118.3,131.49,114.26,131.37z"/>
					<path class="st0" d="M107.37,244.65v-27.29c0,0-0.62-1.24-2.79-1.17c-4.05,0.13-8,1.72-10.31,1.32v27.06
						c0,0,1.46,1.12,5.51-0.04C105.03,243.02,107.37,244.65,107.37,244.65z"/>
					<path class="st0" d="M204.88,217.36v27.29c0,0,2.33-1.63,7.58-0.13c4.06,1.16,5.51,0.04,5.51,0.04V217.5
						c-2.32,0.4-6.27-1.19-10.31-1.32C205.49,216.11,204.88,217.36,204.88,217.36z"/>
					<path class="st0" d="M197.48,131.37c-4.04,0.12-8,1.71-10.32,1.31v27.05c0,0,1.47,1.11,5.53-0.04
						c5.23-1.49,7.58,0.15,7.58,0.15v-27.3C200.26,132.55,199.65,131.3,197.48,131.37z"/>
					<path class="st0" d="M187.67,217.5v27.06c0,0,1.46,1.12,5.51-0.04c5.25-1.5,7.59,0.13,7.59,0.13v-27.29
						c0,0-0.62-1.24-2.79-1.17C193.94,216.31,189.98,217.9,187.67,217.5z"/>
				</g>
				<g>
					<path class="st0" d="M234.94,119.35h-64.89v58.84h64.89V119.35z M225.27,166.18h-18.59v2.34h-7.71v-2.34h-18.59v-31.42h3.96
						v-5.72c4.03,0.97,10.61-1.25,13.55-1.24c3.28,0.01,4.94,1.42,4.94,1.42s1.69-1.42,4.93-1.42c2.94,0,9.51,2.2,13.55,1.24v5.72
						h3.96V166.18z"/>
					<path class="st0" d="M141.75,119.35H76.82v58.84h64.94V119.35z M131.87,166.18h-18.59v2.34h-7.71v-2.34h-18.6v-31.42h3.97
						v-5.72c4.03,0.97,10.61-1.25,13.55-1.24c3.28,0.01,4.94,1.42,4.94,1.42s1.69-1.42,4.93-1.42c2.94,0,9.51,2.2,13.54,1.24v5.72
						h3.97V166.18z"/>
					<path class="st0" d="M170.06,283.4c16.36-4.73,32.57-11.06,43.54-21.1c3.88-3.55,7.11-7.26,9.81-11.3h-16.73v2.34h-7.71v-2.34
						h-18.6v-31.43h3.98v-5.72c4.02,0.98,10.6-1.24,13.54-1.24c3.28,0.01,4.93,1.43,4.93,1.43s1.69-1.43,4.93-1.43
						c2.94,0,9.52,2.2,13.55,1.24v5.72h3.97v28.42c5.97-10.34,8.81-22.99,9.78-40.77l-0.11-2.65h-64.89V283.4z"/>
					<path class="st0" d="M86.97,247.67v-28.1h3.97v-5.72c4.03,0.98,10.61-1.24,13.54-1.24c3.28,0.01,4.94,1.43,4.94,1.43
						s1.68-1.43,4.93-1.43c2.94,0,9.51,2.2,13.54,1.24v5.72h3.97v31.43h-18.6v2.34h-7.7v-2.34H89.01c2.65,4.01,5.78,7.73,9.47,11.18
						c10.34,9.69,26.57,16.27,43.27,21.16v-78.77H76.82l0.14,2.49C77.6,223.33,80.65,236.59,86.97,247.67z"/>
				</g>
			</g>
		</g>
		<g>
			<g>
				<path d="M242.16,64.87c-0.98-0.72-11.32-1.99-12.93-1.99c-1.57,0-10.51,0.08-13.96,0.6c-5.36,0.8-14.51,0.8-21.46,0
					c-2.52-0.29-5.3,0.32-7.58,1.06c0.45-0.38,0.93-0.81,1.5-1.41c2.05-2.11,4.35-6.12,8.42-8.11c1.03-0.51,1.99-1.03,2.93-1.55
					c3.42,1.71,8.82,2.87,15.52-0.28c10,4.99,15.97,1.62,18.08-0.16c2.58-2.18,4.02-5.39,4.02-8.62c0-1.13-0.17-2.26-0.54-3.35
					c-1.44-4.35-5.4-7.06-10.85-7.7c-0.31-1.16-0.81-2.23-1.4-3.25c0.63-0.81,1.23-1.57,1.62-2.03c0.47-0.6,2.12-3.32-2.28-1.05
					c-0.23,0.12-0.65,0.35-1.19,0.65c-0.62-0.61-1.29-1.17-2.07-1.64c-4.1-2.5-9.65-2.81-15.36-1.28c-0.8-3.04-2.31-5.61-4.7-7.08
					c-2.51-1.54-5.68-1.98-9.41-1.41c0.23-0.55,0.45-1.03,0.62-1.41c1.66-3.48,0.76-4.35-0.98-2.81c-1.97,1.74-3.21,2.99-4.15,3.99
					c-3.53-5.67-8.18-9.49-13.67-10.95c-4.77-1.26-9.92-0.59-14.56,1.65c-0.28-2.34-0.58-4.25-0.92-5.36
					c-0.87-2.82-1.9-0.6-2.06,0.26c-0.19,1.18-0.46,2.8-0.77,4.67c-4.64-2.48-9.79-3.16-14.61-1.69c-5.3,1.62-9.33,5.57-11.66,11.05
					c-1.92-0.68-3.66-1.1-5.3-1.39c-0.97-1.27-2.41-2.89-4.42-4.65c-1.35-1.2-2.47-0.58-1.66,1.79c0.32,0.92,0.59,1.73,0.85,2.49
					c-3.78,0.21-6.54,1.45-8.39,2.88c-3.67,2.84-5.16,6.9-5.46,9.47c-0.22,0.05-0.5,0.12-0.5,0.12c-3.08,0.71-7.23,1.86-9.84,5.97
					c-0.46-0.28-0.8-0.49-0.94-0.58c-7.76-5.15-4.18,1.48-1.18,4.4c-10.32,1.46-13.23,6.42-13.98,9.36
					c-0.19,0.75-0.28,1.51-0.28,2.28c0,3.35,1.75,6.7,4.68,8.69c3.45,2.33,7.63,2.19,11.36-0.19c4.86,1.57,11.72,1.31,16.65-2.27
					c2.84,3.06,5.13,5.23,6.38,6.47c3.09,3.08,7.63,5.42,9.95,6.3c-2.29-0.89-6.12-1.84-9.94-1.31c-8.25,1.15-13.73-0.34-17.26-0.7
					c-5.82-0.58-11.8,0.42-14.78,0.42c-3.16,0-7.61,1.48-9.79,1.8c-2.35,0.35-2.2,1.9,1.07,2.77c3.24,0.88,9.3,1.41,10.94,2.12
					c5.27,2.29,14.08,4.2,20.29,3.7c4.41-0.34,8.85,1.81,9.99,2.15c2.19,0.67,7.6,2.15,9.83,2.11c0-0.13,0,3.13,0.23,4.67
					c-0.84,0.28-1.65,0.57-2.38,0.91c-2.47-1.5-13.29-5.89-26.48-0.42c-2.79-0.96-8.68-4.22-16.76-1.56
					c-9.98,3.29-8.36,12.43-5.07,16.61c4.45,5.66,12.68,4.51,15.08,1.67c5.36,3.56,10.82,2.35,14.79-0.11
					c2.61,1.53,15.43,4.08,25.18,0.11c1.33,0.99,6.69,3.79,13.56,0.32c3.97,2.35,10.53,2.54,13.89-0.43
					c1.22,1.04,4.88,2.52,12.68,2.43c9.37-0.11,11.54-1.51,12.85-2.65c2.02,0.94,7.28,3.69,13.78,0.91
					c3.51,2.21,10.53,2.08,14.3-0.39c6.88,3.13,19.51,1.71,22.67-0.46c5.65-3.92,2.92-11.91-3.31-15.7
					c-12.24-6.17-23.63-1.38-26.65,0.17c-3.6-2.43-11.14-3.99-18.97-2.54c0.12-0.93-0.02-2-0.02-3.18c0-0.13-0.02-0.24-0.02-0.37
					c1.55-0.47,3.76-2.14,8.25-2.42c6.11-0.41,20.53-0.22,27.74-3.91c4.11-2.1,18.43-4.91,20.33-6.02
					C243.69,66.4,243.17,65.56,242.16,64.87z M189.66,56.61c-5.2,6.12-7.82,8.25-8.73,8.21c-1-1.99-3.2-4.36-4.69-5.68
					c1.87-2.08,9.99-5.87,13.74-8.69c0.55-0.42,2.2-1.42,2.9-1.81c0.97,1.15,2.11,2.25,3.44,3.2
					C193.1,53.62,191.33,54.65,189.66,56.61z M114.79,43.33c4.37,0.69,9.45-0.33,13.15-3.66c4.54,7.25,4.66,13.82,9.04,18.34
					c-5.53-5.35-10.36-5.25-18.27-9.52c-1.37-0.74-3.41-2.06-3.98-2.35c-0.01-0.01-0.03-0.01-0.04-0.02
					c0.09-0.67,0.15-1.36,0.15-2.11C114.84,43.8,114.79,43.55,114.79,43.33z M148.51,51.43l0.12,0.25c0,0-2.41-3.62-2.7-4.08
					c-0.82-1.26-1.9-2.53-3.1-4.01c-1.88-2.28-3.54-4.14-4.82-5.52c3.16-0.77,6.76-2.57,10.64-6.23c0.41,0.3,0.83,0.53,1.25,0.79
					c-0.21,1.24-0.41,2.37-0.56,3.18c-0.9,4.89-0.96,8.64-1.02,10.25C148.25,47.6,148.4,50.01,148.51,51.43z M141.59,46.92
					c1.92,2.51,3.65,5.47,4.02,6.09c-1.61,0.58-4.46,2.02-6.1,3.13c-3.08-3.18-5.47-12.79-7.01-15.33c-0.59-0.97-1-1.65-1.32-2.18
					c1.06,0.37,2.76,0.32,3.76,0.33C135.23,39.39,137.89,42.01,141.59,46.92z M155.88,54.06c15.13,0,26.98,11.85,26.98,26.97
					c0,1.01-0.07,2.54-0.26,3.99c-1.63,0.47-3.25,1.03-4.8,1.8c-7.81-4.55-18.47-4.28-25.87-0.06c-4.57-3.62-14.86-3.91-22.62-2.11
					c-0.23-1.46-0.39-2.9-0.39-3.62C128.91,66.13,140.99,54.06,155.88,54.06z M152,43.75c0.31-5.01,1.26-8.42,1.4-9.06
					c1.06,0.51,2.36,0.95,3.61,1.27c0.99,2.09,2.66,10.43,1.93,15.46c-2.28-0.21-4.94-0.16-6.54,0
					C151.9,50.52,151.83,46.43,152,43.75z M175.91,44.29c-1.52,3.28-0.73,7.52-4.63,11.36c-0.54-0.44-4.47-2.32-5.96-2.92
					c0.62-5.21,5.47-11.71,8.64-14.4c0.99,1.13,2.36,2.1,3.62,2.79C177.21,41.76,176.57,42.87,175.91,44.29z M180.04,43.24
					c0.13-0.22,0.27-0.5,0.42-0.81c2.9,0.97,6.09,1.22,9.22,0.88c0.32,1.02,0.81,2.11,1.44,3.21c-0.01,0-0.04,0.02-0.05,0.03
					c-1.55,0.74-6.24,3.95-13.1,7.77c-1.77,0.98-2.87,1.93-3.49,2.57c0.75-1.01,1.68-2.36,2.26-3.84
					C177.94,49.96,177.62,47.48,180.04,43.24z M163.45,47.19c-0.74,1.88-1.03,2.87-1.31,3.93c0.58-4.04-0.52-9.96-1.69-15.06
					c3.53,0.07,7.1-0.85,10.64-2.86c0.27,0.8,0.64,1.5,1,2.19C170.08,37.22,165.3,42.46,163.45,47.19z M108.1,51.34
					c-4.05,3.24-10.72,3.55-14.83,1.98c-0.52-0.2-1.11-0.12-1.56,0.21c-2.75,1.99-5.75,2.17-8.24,0.48
					c-2.48-1.67-3.73-4.73-3.05-7.42c0.97-3.83,5.54-6.42,12.55-7.12c0.73-0.07,1.32-0.61,1.46-1.33c1.26-6.41,5.43-7.37,9.45-8.29
					l1.74-0.42c0.82-0.2,1.32-0.97,1.21-1.81c-0.15-1.21,0.9-5.35,4.3-7.98c3.96-3.06,9.9-3.13,17.17-0.22
					c0.42,0.17,0.89,0.16,1.3-0.03c0.41-0.18,0.73-0.53,0.88-0.96c1.82-5.28,5.44-8.98,10.18-10.43c4.87-1.49,10.24-0.42,14.72,2.95
					c0.56,0.42,1.31,0.44,1.89,0.07c4.46-2.86,9.74-3.78,14.49-2.52c5.31,1.41,9.81,5.39,13.01,11.53c0.38,0.72,1.23,1.06,2,0.8
					c4.98-1.71,9.03-1.75,11.71-0.12c2.54,1.55,3.42,4.3,3.71,6.33c0.07,0.49,0.35,0.92,0.77,1.17s0.93,0.32,1.39,0.16
					c5.28-1.77,10.59-1.51,14.2,0.69c2.37,1.44,3.83,3.59,4.25,6.22c0.12,0.77,0.75,1.35,1.53,1.39c4.61,0.28,7.89,2.33,8.98,5.62
					c0.98,2.95-0.02,6.33-2.48,8.4c-3.49,2.94-9.01,2.75-15.15-0.53c-0.48-0.26-1.05-0.26-1.53-0.01
					c-4.78,2.46-9.31,2.63-13.47,0.49c-4.86-2.51-7.67-7.42-8.04-9.96c-0.06-0.44-0.3-0.84-0.65-1.1c-0.36-0.26-0.81-0.37-1.24-0.3
					c-3.41,0.55-14.71,1.51-17.05-9.32c-0.11-0.54-0.49-0.98-0.99-1.18c-0.5-0.21-1.08,0.19-1.54,0.49
					c-7.33,4.88-14.56,4.53-21.5-1.04c-0.66-0.53-1.62-0.61-2.21-0.01c-7.9,8.02-14.39,7.43-17.55,6.14
					c-0.74-0.3-1.59-0.06-2.02,0.62c-3.06,4.85-9.63,5.86-14.22,4.38c-0.54-0.17-1.14-0.22-1.58,0.15c-0.44,0.37-0.65,0.93-0.57,1.5
					C112.19,45.52,111.03,48.99,108.1,51.34z M111.92,52.85c0.75-0.97,1.57-2.72,1.97-4c0.42,0.26,0.76,0.47,0.95,0.6
					c0.13,0.07,2.74,1.83,4.29,2.56c6.85,3.22,11.15,4.02,15.82,7.79c-1.71,1.85-3.44,4.01-4.51,5.89
					C120.64,62.97,112.98,54.23,111.92,52.85z M117.01,74.68c-0.96-0.33-6.54-2.36-9.87-2.13c-6.82,0.5-15.5-1.65-19.8-3.35
					c-1.07-0.42-10.47-1.24-1.33-1.24c3,0,6.74-0.84,12.75,0.02c3.51,0.5,9.63,1.09,18.92,0.36c4.54-0.36,8.03,1.13,9.78,2.86
					c-0.47,1.37-1.04,4.64-1.17,5.73C123.9,76.99,119.46,75.56,117.01,74.68z M93.94,99.47c-4.15-2.96-6.95-8.44-9.84-7.49
					c-1.21,0.39-1.34,2.54,0.32,2.59c1.14,0.03,3.18,3.03,4.36,4.36c-0.3,1.6-4.42,3.29-8.74,0.7c-1.89-1.13-5.05-5.18-2.36-9.88
					c1.46-2.55,5.6-3.95,10.57-3.85c9.61,0.22,12.31,11.14,14.57,13.19C102.81,100.18,97.63,102.11,93.94,99.47z M107.89,99.32
					c-3.63-1.61-6.5-9.97-7.57-11.03c-0.42-0.42,6.42-2.91,13.38-2.31c11.85,1.01,11.88,8.37,14.8,12.04
					C129.56,99.35,118.88,102.42,107.89,99.32z M146.66,100.07c-1.11-0.75-4.48-4.97-5.68-6.43c-1.2-1.45-3.42-2.77-4.36-1.45
					c-0.56,0.8,0.02,1.71,1.02,2.28c1.07,0.62,3.93,4.31,4.3,5c-0.22,1.14-5.53,3.05-8.64-0.73c-1.6-1.96-4.72-7.79-6.59-10.28
					c6.75-2.4,14.78-3.29,20.47-0.61c5.46,2.57,6.41,8.48,8.59,11.36C156.32,101.15,149.98,102.32,146.66,100.07z M161.54,99.92
					c-3.62-1.61-6.5-9.97-7.57-11.04c-0.43-0.42,6.42-2.9,13.38-2.3c11.85,1,11.89,8.37,14.8,12.03
					C183.22,99.96,172.55,103.03,161.54,99.92z M220.8,86.19c11.85,1,14.66,8.8,13.49,11.33c-1.04,2.22-8.29,5.11-19.29,2.01
					c-3.63-1.62-6.51-9.97-7.57-11.04C206.99,88.06,213.84,85.59,220.8,86.19z M200.68,88.05c5.47,2.57,6.74,8.45,8.58,11.36
					c0.54,1.94-6.1,2.54-9.12,0.87c-1.16-0.66-4.47-4.97-5.67-6.44c-1.2-1.45-3.08-2.39-4.01-1.06c-0.56,0.8,0.11,1.75,1.15,2.32
					c1.28,0.69,3.44,3.89,3.83,4.58c-0.22,1.14-4.91,2.63-8.34-0.85c-1.76-1.77-4.92-7.94-6.13-10.35
					C187.71,86.07,195,85.37,200.68,88.05z M232.47,67.37c-3.44,0.7-7.68,1.68-12.73,3.64c-6.76,2.63-20.13,3.36-25.56,3.27
					c-5.21-0.09-6.97,2.22-8.8,1.9c-0.11-2.81-1.76-6.95-1.76-6.95c1.51-0.81,6.46-2.48,10.75-2.32c5.75,0.22,16.23,0.66,21.65-0.19
					c2.65-0.41,12.33-0.45,13.81-0.46c1.12-0.01,2.86,0.23,3.32,0.3C235.44,66.91,233.62,67.14,232.47,67.37z"/>
				<g>
					<path d="M93.69,44.35c-2.89,0-5.21,0.06-7.24,2.27c-2.17,2.35-1.65,3.65-2.05,4.07c-0.59,0.58-2.08-0.45-2.06-1.61
						c0.13-5.54,6.82-7.7,10.79-7.26C94.64,42.01,95.03,44.35,93.69,44.35"/>
					<path d="M105.44,35.06c-4.23,0.46-5.46,2.53-6.22,4.89c-0.31,0.89-2.68,0.25-2.3-1.5c1.12-5.21,6.77-6.48,8.82-6.03
						C106.43,32.55,106.22,34.98,105.44,35.06"/>
					<path d="M123.85,23.74c-7.49-2.94-11.26,2.75-12.47,7.23c-0.17,0.61-2.68,0.38-2.32-1.53c0.87-4.6,5.36-11.29,15.63-8.68
						C125.95,21.08,125.2,24.28,123.85,23.74"/>
					<path d="M151.9,16.35c-6.91-4.75-12.34-0.94-15.22,2.5c-1.38,1.63-2.82-1.07-2.23-2.02c2.48-3.93,11-9.99,18.55-3.32
						C153.86,14.25,152.85,16.99,151.9,16.35"/>
					<path d="M180.26,22.78c-0.57,0.41-0.92-0.52-1.3-1.13c-6.16-9.74-17.29-7.17-20.29-2.65c-0.61,0.92-2.23-1.57-1.44-2.86
						c2.7-4.4,16.84-8.49,24.09,3.95C182.1,21.43,181.07,22.22,180.26,22.78"/>
					<path d="M197.59,28.9c-1.74-4.54-5.02-4.36-8.93-3.11c-1.8,0.59-1.37-2.39-0.77-2.6c3.75-1.33,10.14-1.92,11.84,4.35
						C200.22,29.29,198.07,30.13,197.59,28.9"/>
					<path d="M217.88,38.65c-3.11-5.71-8.13-5.7-12.32-4.1c-0.94,0.37-1.79-2.02-0.3-2.87c4.04-2.31,12.31-1.9,14.88,5.48
						C220.58,38.42,218.92,40.55,217.88,38.65"/>
					<path d="M230.79,47.65c-0.24,0.96-2.59,1.02-2.51,0.04c0.36-4.68-1.95-5.05-5.03-5.02c-1.17,0.03-1.08-2.49-0.19-2.68
						C227.21,39.03,232.2,42.06,230.79,47.65"/>
				</g>
				<g>
					<path d="M149.98,71.83c-0.09,1.73-1.56,3.06-3.3,2.98c-1.73-0.08-3.06-1.57-2.97-3.29l0.03-0.35c-0.27-0.41-1.68-0.87-3.78,0.4
						c-1.05,0.65-2.23,0.2-0.4-1.38c1.94-1.69,3.79-2.67,5.41-2.87l0.05-0.01c2.74-0.19,6.3,0.37,7.97,1.05
						c0.69,0.28-0.03,3.67-0.18,3.63c-0.57-0.13-1.8-0.65-2.83-0.41L149.98,71.83"/>
					<path d="M158.98,81.23c-0.55,1.6-6.22,2.11-7.26,0.03c-0.41-0.83-0.98-2.96-0.21-2.52c1.26,0.73,5.82,0.21,6.68,0
						c0.76-0.2,0.26-1.26,0.74-1.13C159.49,77.78,159.49,79.72,158.98,81.23"/>
					<path d="M172.32,72.36c-1.42-1.17-3.29-1.69-4.01-1.17l0.03,0.24c0.15,1.73-1.13,3.25-2.85,3.4c-1.73,0.15-3.26-1.13-3.4-2.86
						v-0.13c-1.13-0.36-2.93,0.27-3.17,0.17c-0.15-0.07-0.91-3.26,0.09-3.67c2.71-1.1,11.43-1.64,13.96,3.25
						C173.26,72.19,173.07,72.98,172.32,72.36"/>
				</g>
			</g>
			<g>
				<path d="M170.06,119.35h64.89v58.84h-64.89V119.35z M76.82,119.35h64.94v58.84H76.82V119.35z M141.74,283.34
					c-16.71-4.89-32.93-11.47-43.27-21.16c-3.69-3.45-6.82-7.17-9.47-11.18h16.57v2.34h7.7v-2.34h18.6v-31.43h-3.97v-5.72
					c-4.03,0.96-10.6-1.24-13.54-1.24c-3.24,0-4.93,1.43-4.93,1.43s-1.67-1.42-4.94-1.43c-2.94,0-9.52,2.21-13.54,1.24v5.72h-3.97
					v28.1c-6.32-11.08-9.37-24.34-10.02-40.6l-0.14-2.49h64.93V283.34z M94.27,244.56V217.5c2.31,0.4,6.27-1.19,10.31-1.32
					c2.17-0.07,2.79,1.17,2.79,1.17v27.29c0,0-2.34-1.63-7.59-0.13C95.73,245.67,94.27,244.56,94.27,244.56z M111.47,244.65v-27.29
					c0,0,0.62-1.24,2.79-1.17c4.05,0.13,8,1.72,10.32,1.32v27.06c0,0-1.47,1.12-5.52-0.04
					C113.82,243.02,111.47,244.65,111.47,244.65z M166.66,284.42l-10.75,2.74l-10.78-2.78v-83.42H76.82v-19.15h68.32v-62.45h21.53
					v62.45h68.28v19.15h-68.28V284.42z M225.28,247.99v-28.42h-3.97v-5.72c-4.03,0.96-10.61-1.24-13.55-1.24
					c-3.24,0-4.93,1.43-4.93,1.43s-1.66-1.42-4.93-1.43c-2.94,0-9.52,2.21-13.54,1.24v5.72h-3.98v31.43h18.6v2.34h7.71v-2.34h16.73
					c-2.7,4.05-5.93,7.75-9.81,11.3c-10.97,10.04-27.18,16.36-43.54,21.1v-78.82h64.89l0.11,2.65
					C234.09,225,231.25,237.66,225.28,247.99z M217.97,217.5v27.06c0,0-1.46,1.12-5.51-0.04c-5.25-1.5-7.58,0.13-7.58,0.13v-27.29
					c0,0,0.61-1.24,2.79-1.17C211.71,216.31,215.65,217.9,217.97,217.5z M200.77,217.36v27.29c0,0-2.34-1.63-7.59-0.13
					c-4.05,1.16-5.51,0.04-5.51,0.04V217.5c2.32,0.4,6.27-1.19,10.31-1.32C200.15,216.11,200.77,217.36,200.77,217.36z
					 M72.84,115.39v87.08c0,28.78,7.19,48.71,22.57,62.71c15.27,13.9,38.14,20.96,60.5,26.24c22.97-5.43,45.07-12.19,60.49-26.24
					c15.38-14,22.53-33.93,22.53-62.71v-87.08H72.84z"/>
				<path d="M127.9,134.76v-5.72c-4.03,0.95-10.61-1.24-13.54-1.24c-3.24,0-4.93,1.42-4.93,1.42s-1.66-1.41-4.94-1.42
					c-2.94-0.01-9.52,2.22-13.55,1.24v5.72h-3.97v31.42h18.6v2.34h7.71v-2.34h18.59v-31.42H127.9z M107.36,159.84
					c0,0-2.34-1.64-7.58-0.15c-4.05,1.15-5.52,0.04-5.52,0.04v-27.05c2.32,0.41,6.27-1.19,10.31-1.31c2.18-0.07,2.79,1.17,2.79,1.17
					V159.84z M124.58,159.73c0,0-1.47,1.11-5.52-0.04c-5.25-1.49-7.59,0.15-7.59,0.15v-27.3c0,0,0.62-1.24,2.79-1.17
					c4.04,0.12,8,1.71,10.32,1.31V159.73z"/>
				<path d="M221.31,134.76v-5.72c-4.04,0.95-10.61-1.24-13.55-1.24c-3.24,0-4.93,1.42-4.93,1.42s-1.66-1.41-4.94-1.42
					c-2.94-0.01-9.52,2.22-13.55,1.24v5.72h-3.96v31.42h18.59v2.34h7.71v-2.34h18.59v-31.42H221.31z M200.26,159.84
					c0,0-2.34-1.64-7.58-0.15c-4.06,1.15-5.53,0.04-5.53,0.04v-27.05c2.32,0.41,6.28-1.19,10.32-1.31c2.18-0.07,2.78,1.17,2.78,1.17
					V159.84z M217.48,159.73c0,0-1.47,1.11-5.52-0.04c-5.25-1.49-7.59,0.15-7.59,0.15v-27.3c0,0,0.62-1.24,2.79-1.17
					c4.04,0.12,7.99,1.71,10.31,1.31V159.73z"/>
			</g>
		</g>
		<g>
			<polygon class="st1" points="145.13,284.38 155.91,287.16 166.66,284.42 166.66,200.96 234.94,200.96 234.94,181.81 
				166.66,181.81 166.66,119.35 145.13,119.35 145.13,181.81 76.82,181.81 76.82,200.96 145.13,200.96 			"/>
			<g>
				<path class="st1" d="M113.7,85.98c-6.96-0.6-13.8,1.88-13.38,2.31c1.07,1.07,3.94,9.42,7.57,11.03c11,3.09,21.67,0.03,20.61-1.3
					C125.58,94.35,125.54,86.99,113.7,85.98z"/>
				<path class="st1" d="M167.35,86.58c-6.96-0.6-13.81,1.88-13.38,2.3c1.07,1.07,3.95,9.43,7.57,11.04
					c11.01,3.1,21.68,0.03,20.61-1.31C179.24,94.95,179.21,87.59,167.35,86.58z"/>
				<path class="st1" d="M214.99,99.53c11,3.1,18.25,0.21,19.29-2.01c1.18-2.53-1.64-10.33-13.49-11.33
					c-6.96-0.59-13.8,1.88-13.37,2.3C208.48,89.56,211.36,97.91,214.99,99.53z"/>
			</g>
		</g>
	</g>
</g>
</svg>
